<svg xmlns="http://www.w3.org/2000/svg" viewBox="0 0 1216 928"><title>ESM vs. CJS on npm</title><style>text{font-size:24px;font-weight:bolder;font-family:-apple-system,BlinkMacSystemFont,&quot;Segoe UI&quot;,Helvetica,Arial,sans-serif,&quot;Apple Color Emoji&quot;,&quot;Segoe UI Emoji&quot;;font-variant-numeric:tabular-nums;paint-order:stroke;dominant-baseline:middle;stroke:#fff;stroke-width:3px}.b,.esm{fill:#fff}.dual{fill:url(#a)}.faux{fill:url(#b)}.cjs{fill:url(#c)}.cjs,.dual,.esm,.faux,pattern line{stroke:#0d1117;stroke-width:3px}pattern line{stroke-width:2px}pattern rect,text{fill:#0d1117}</style><defs><pattern id="a" width="6" height="6" x="0" y="0" patternUnits="userSpaceOnUse"><line x1="0" x2="0" y1="0" y2="6"/></pattern><pattern id="b" width="6" height="6" x="0" y="0" patternUnits="userSpaceOnUse"><line x1="0" x2="6" y1="0" y2="0"/></pattern><pattern id="c" width="6" height="6" x="0" y="0" patternUnits="userSpaceOnUse"><rect width="1" height="1" x="0" y="0"/></pattern></defs><rect width="1216" height="928" x="0" y="0" class="b"/><g><g><rect width="58.28" height="32" x="32" y="32" class="esm"/><rect width="16.236" height="32" x="90.28" y="32" class="dual"/><rect width="142.197" height="32" x="106.517" y="32" class="faux"/><rect width="743.286" height="32" x="248.714" y="32" class="cjs"/><text text-anchor="middle" transform="translate(61.14011037920598, 48) rotate(-45)">6.1%</text><text text-anchor="middle" transform="translate(98.39843332739896, 48) rotate(-45)">1.7%</text><text text-anchor="middle" transform="translate(177.61509702688267, 48)">14.8%</text><text text-anchor="middle" transform="translate(620.3567740786897, 48)">77.4%</text><text x="1024" y="48">2021-08-24</text></g><g><rect width="69.871" height="32" x="32" y="96" class="esm"/><rect width="20.23" height="32" x="101.871" y="96" class="dual"/><rect width="137.531" height="32" x="122.101" y="96" class="faux"/><rect width="732.368" height="32" x="259.632" y="96" class="cjs"/><text text-anchor="middle" transform="translate(66.93536391004073, 112) rotate(-45)">7.3%</text><text text-anchor="middle" transform="translate(111.98583318576235, 112) rotate(-45)">2.1%</text><text text-anchor="middle" transform="translate(190.86665486098815, 112)">14.3%</text><text text-anchor="middle" transform="translate(625.8161855852666, 112)">76.3%</text><text x="1024" y="112">2021-11-09</text></g><g><rect width="74.119" height="32" x="32" y="160" class="esm"/><rect width="25.157" height="32" x="106.119" y="160" class="dual"/><rect width="136.588" height="32" x="131.275" y="160" class="faux"/><rect width="724.136" height="32" x="267.864" y="160" class="cjs"/><text text-anchor="middle" transform="translate(69.05944424903271, 176) rotate(-45)">7.7%</text><text text-anchor="middle" transform="translate(118.69715089693985, 176) rotate(-45)">2.6%</text><text text-anchor="middle" transform="translate(199.569468870911, 176)">14.2%</text><text text-anchor="middle" transform="translate(629.931762223004, 176)">75.4%</text><text x="1024" y="176">2022-01-27</text></g><g><rect width="83.042" height="32" x="32" y="224" class="esm"/><rect width="34.656" height="32" x="115.042" y="224" class="dual"/><rect width="132.431" height="32" x="149.698" y="224" class="faux"/><rect width="709.871" height="32" x="282.129" y="224" class="cjs"/><text text-anchor="middle" transform="translate(73.52075340076735, 240) rotate(-45)">8.7%</text><text text-anchor="middle" transform="translate(132.36972445064526, 240) rotate(-45)">3.6%</text><text text-anchor="middle" transform="translate(215.91349843041507, 240)">13.8%</text><text text-anchor="middle" transform="translate(637.0645273805371, 240)">73.9%</text><text x="1024" y="240">2022-08-01</text></g><g><rect width="86.529" height="32" x="32" y="288" class="esm"/><rect width="36.081" height="32" x="118.529" y="288" class="dual"/><rect width="131.129" height="32" x="154.61" y="288" class="faux"/><rect width="706.261" height="32" x="285.739" y="288" class="cjs"/><text text-anchor="middle" transform="translate(75.26431181485992, 304) rotate(-45)">9.0%</text><text text-anchor="middle" transform="translate(136.56934052549155, 304) rotate(-45)">3.8%</text><text text-anchor="middle" transform="translate(220.17469984339655, 304)">13.7%</text><text text-anchor="middle" transform="translate(638.8696711327649, 304)">73.6%</text><text x="1024" y="304">2022-11-04</text></g><g><rect width="89.611" height="32" x="32" y="352" class="esm"/><rect width="40.23" height="32" x="121.611" y="352" class="dual"/><rect width="135.047" height="32" x="161.841" y="352" class="faux"/><rect width="695.113" height="32" x="296.887" y="352" class="cjs"/><text text-anchor="middle" transform="translate(76.80525883319638, 368) rotate(-45)">9.3%</text><text text-anchor="middle" transform="translate(141.72555464256368, 368) rotate(-45)">4.2%</text><text text-anchor="middle" transform="translate(229.36400986031225, 368)">14.1%</text><text text-anchor="middle" transform="translate(644.4437140509449, 368)">72.4%</text><text x="1024" y="368">2023-02-06</text></g><g><rect width="96.923" height="32" x="32" y="416" class="esm"/><rect width="64.154" height="32" x="128.923" y="416" class="dual"/><rect width="120.462" height="32" x="193.077" y="416" class="faux"/><rect width="678.462" height="32" x="313.538" y="416" class="cjs"/><text text-anchor="middle" transform="translate(80.46153846153845, 432) rotate(-45)">10.1%</text><text text-anchor="middle" transform="translate(160.99999999999997, 432) rotate(-45)">6.7%</text><text text-anchor="middle" transform="translate(253.30769230769226, 432) rotate(-45)">12.5%</text><text text-anchor="middle" transform="translate(652.7692307692307, 432)">70.7%</text><text x="1024" y="432">2023-05-29</text></g><g><rect width="97.794" height="32" x="32" y="480" class="esm"/><rect width="68.427" height="32" x="129.794" y="480" class="dual"/><rect width="126.727" height="32" x="198.221" y="480" class="faux"/><rect width="667.052" height="32" x="324.948" y="480" class="cjs"/><text text-anchor="middle" transform="translate(80.89692585895118, 496) rotate(-45)">10.2%</text><text text-anchor="middle" transform="translate(164.00723327305607, 496) rotate(-45)">7.1%</text><text text-anchor="middle" transform="translate(261.5840867992767, 496) rotate(-45)">13.2%</text><text text-anchor="middle" transform="translate(658.4737793851717, 496)">69.5%</text><text x="1024" y="496">2023-08-24</text></g><g><rect width="103.35" height="32" x="32" y="544" class="esm"/><rect width="71.81" height="32" x="135.35" y="544" class="dual"/><rect width="124.048" height="32" x="207.16" y="544" class="faux"/><rect width="660.792" height="32" x="331.208" y="544" class="cjs"/><text text-anchor="middle" transform="translate(83.67497799941331, 560) rotate(-45)">10.8%</text><text text-anchor="middle" transform="translate(171.25491346435905, 560) rotate(-45)">7.5%</text><text text-anchor="middle" transform="translate(269.1839249046641, 560) rotate(-45)">12.9%</text><text text-anchor="middle" transform="translate(661.6039894397184, 560)">68.8%</text><text x="1024" y="560">2023-11-22</text></g><g><rect width="112.604" height="32" x="32" y="608" class="esm"/><rect width="80.977" height="32" x="144.604" y="608" class="dual"/><rect width="121.738" height="32" x="225.581" y="608" class="faux"/><rect width="644.68" height="32" x="347.32" y="608" class="cjs"/><text text-anchor="middle" transform="translate(88.30218687872764, 624) rotate(-45)">11.7%</text><text text-anchor="middle" transform="translate(185.09287134336836, 624) rotate(-45)">8.4%</text><text text-anchor="middle" transform="translate(286.4504402158478, 624) rotate(-45)">12.7%</text><text text-anchor="middle" transform="translate(669.6597557512071, 624)">67.2%</text><text x="1024" y="624">2024-02-20</text></g><g><rect width="111.65" height="32" x="32" y="672" class="esm"/><rect width="100.335" height="32" x="143.65" y="672" class="dual"/><rect width="112.604" height="32" x="243.985" y="672" class="faux"/><rect width="635.41" height="32" x="356.59" y="672" class="cjs"/><text text-anchor="middle" transform="translate(87.82504970178925, 688) rotate(-45)">11.6%</text><text text-anchor="middle" transform="translate(193.8176654359557, 688) rotate(-45)">10.5%</text><text text-anchor="middle" transform="translate(300.28741834706045, 688) rotate(-45)">11.7%</text><text text-anchor="middle" transform="translate(674.294802612894, 688)">66.2%</text><text x="1024" y="688">2024-05-27</text></g><g><rect width="116.009" height="32" x="32" y="736" class="esm"/><rect width="110.102" height="32" x="148.009" y="736" class="dual"/><rect width="110.102" height="32" x="258.112" y="736" class="faux"/><rect width="623.786" height="32" x="368.214" y="736" class="cjs"/><text text-anchor="middle" transform="translate(90.00471327572663, 752) rotate(-45)">12.1%</text><text text-anchor="middle" transform="translate(203.06048703849174, 752) rotate(-45)">11.5%</text><text text-anchor="middle" transform="translate(313.16260801256874, 752) rotate(-45)">11.5%</text><text text-anchor="middle" transform="translate(680.1068342498036, 752)">65.0%</text><text x="1024" y="752">2024-08-28</text></g><g><rect width="111.824" height="32" x="32" y="800" class="esm"/><rect width="136.753" height="32" x="143.824" y="800" class="dual"/><rect width="100.072" height="32" x="280.577" y="800" class="faux"/><rect width="611.352" height="32" x="380.648" y="800" class="cjs"/><text text-anchor="middle" transform="translate(87.91195746259429, 816) rotate(-45)">11.6%</text><text text-anchor="middle" transform="translate(212.20032150364784, 816)">14.2%</text><text text-anchor="middle" transform="translate(330.61258810436505, 816) rotate(-45)">10.4%</text><text text-anchor="middle" transform="translate(686.3242240633115, 816)">63.7%</text><text x="1024" y="816">2024-11-27</text></g><g><rect width="96" height="32" x="32" y="864" class="esm"/><rect width="96" height="32" x="160" y="864" class="dual"/><rect width="96" height="32" x="288" y="864" class="faux"/><rect width="96" height="32" x="416" y="864" class="cjs"/><text text-anchor="middle" transform="translate(80, 880)">esm</text><text text-anchor="middle" transform="translate(208, 880)">dual</text><text text-anchor="middle" transform="translate(336, 880)">faux</text><text text-anchor="middle" transform="translate(464, 880)">cjs</text></g></g></svg>