<svg width="785" height="540" viewBox="0 0 785 540" fill="none" xmlns="http://www.w3.org/2000/svg">
<path d="M391.5 18L763.985 521.847H19.0156L391.5 18Z" fill="white" fill-opacity="0.75"/>
<g style="mix-blend-mode:darken">
<path d="M273.354 178.896L527.709 522.038H19L273.354 178.896Z" fill="#E647A6" fill-opacity="0.6"/>
</g>
<g style="mix-blend-mode:darken">
<path d="M391.5 18L645.855 361.142H137.146L391.5 18Z" fill="#FBAF1C" fill-opacity="0.6"/>
</g>
<g style="mix-blend-mode:darken">
<path d="M509.646 178.896L764 522.038H255.291L509.646 178.896Z" fill="#57BCF4" fill-opacity="0.6"/>
</g>
<g style="mix-blend-mode:plus-darker">
<path d="M20.5277 521.085L391.5 19.2827L762.473 521.085H20.5277Z" stroke="black" stroke-opacity="0.5" stroke-width="1.52508"/>
<path d="M20.5144 521.275L273.354 180.176L526.195 521.275H20.5144Z" stroke="black" stroke-opacity="0.5" stroke-width="1.52508"/>
<path d="M138.66 360.38L391.5 19.2805L644.34 360.38H138.66Z" stroke="black" stroke-opacity="0.5" stroke-width="1.52508"/>
<path d="M256.805 521.275L509.646 180.176L762.486 521.275H256.805Z" stroke="black" stroke-opacity="0.5" stroke-width="1.52508"/>
</g>
<g style="mix-blend-mode:plus-darker">
<path d="M363.824 151.034V164.53H361.041V153.702H355.703V151.034H363.824ZM363.824 163.272C365.616 166.094 369.009 167.39 373.394 167.581C377.55 167.733 386.128 167.619 390.627 167.314C390.322 168 389.827 169.373 389.712 170.249C385.518 170.402 377.626 170.478 373.394 170.326C368.438 170.135 365.006 168.801 362.566 165.789C360.736 167.428 358.791 169.068 356.733 170.745L355.208 167.809C357.038 166.589 359.287 164.912 361.232 163.272H363.824ZM356.123 138.642L358.22 136.927C360.736 138.528 363.595 141.006 364.93 142.874L362.68 144.743C361.46 142.912 358.601 140.32 356.123 138.642ZM370.23 147.907V152.749H385.366V147.907H370.23ZM367.561 145.581H388.149V155.075H367.561V145.581ZM365.997 139.977H389.865V142.455H365.997V139.977ZM376.254 136.05H378.999V166.132H376.254V136.05ZM375.3 154.16L377.397 154.961C375.148 159.04 370.992 163.005 367.141 165.026C366.722 164.34 365.883 163.349 365.273 162.853C369.048 161.213 373.203 157.668 375.3 154.16ZM379.685 154.16C381.973 157.515 386.319 161.023 390.094 162.662C389.445 163.234 388.569 164.187 388.149 164.912C384.413 162.891 380.066 158.85 377.664 155.075L379.685 154.16ZM400.579 146.687H427.687V149.051H400.579V146.687ZM401.112 157.82H422.921V160.184H401.112V157.82ZM406.717 143.37H409.424V153.092H418.727V143.37H421.51V155.38H406.717V143.37ZM422.158 157.82H422.73L423.264 157.668L425.056 158.659C420.862 166.589 411.102 169.792 400.845 171.088C400.617 170.364 400.083 169.296 399.625 168.648C409.271 167.733 418.689 164.759 422.158 158.24V157.82ZM407.899 159.803C411.521 164.874 419.413 167.733 428.64 168.686C428.03 169.296 427.306 170.402 426.962 171.126C417.507 169.906 409.577 166.666 405.421 160.718L407.899 159.803ZM410.682 136.012H413.618V141.197H410.682V136.012ZM397.986 139.786H427.954V142.379H397.986V139.786ZM396.575 139.786H399.32V150.767C399.32 156.714 398.825 165.331 395.546 171.126C395.05 170.631 393.83 169.83 393.182 169.525C396.308 164.073 396.575 156.333 396.575 150.767V139.786ZM343.603 191.311C342.891 196.191 341.773 200.817 340.248 205.189C338.748 209.561 336.765 213.831 334.3 218H330.678C328.212 213.806 326.217 209.523 324.692 205.151C323.167 200.779 322.048 196.166 321.337 191.311H325.264C326.458 199.852 328.86 207.401 332.47 213.959C336.079 207.401 338.481 199.852 339.676 191.311H343.603ZM364.828 206.066C364.828 206.575 364.79 207.235 364.713 208.049H350.073C350.174 210.464 350.734 212.345 351.75 213.692C352.767 215.013 354.165 215.674 355.944 215.674C357.139 215.674 358.13 215.433 358.918 214.95C359.732 214.467 360.52 213.628 361.282 212.433C361.485 212.154 361.765 212.014 362.121 212.014C362.705 212.014 363.468 212.357 364.408 213.044C363.748 214.721 362.68 216.03 361.206 216.971C359.732 217.911 357.978 218.381 355.944 218.381C353.987 218.381 352.284 217.949 350.835 217.085C349.412 216.195 348.319 214.937 347.556 213.31C346.794 211.658 346.413 209.714 346.413 207.477C346.413 204.096 347.264 201.453 348.967 199.547C350.695 197.615 353.072 196.649 356.097 196.649C358.867 196.649 361.015 197.475 362.54 199.127C364.065 200.779 364.828 203.092 364.828 206.066ZM361.13 205.609C361.13 201.415 359.414 199.318 355.982 199.318C354.279 199.318 352.932 199.852 351.941 200.919C350.95 201.987 350.352 203.55 350.149 205.609H361.13ZM369.57 187.842H373.154V218H369.57V187.842ZM387.016 218.381C384.017 218.381 381.742 217.454 380.192 215.598C378.641 213.742 377.866 211.035 377.866 207.477C377.866 203.918 378.641 201.224 380.192 199.394C381.742 197.564 384.017 196.649 387.016 196.649C390.016 196.649 392.29 197.564 393.841 199.394C395.417 201.224 396.205 203.918 396.205 207.477C396.205 211.035 395.417 213.742 393.841 215.598C392.29 217.454 390.016 218.381 387.016 218.381ZM387.016 215.751C388.923 215.751 390.308 215.09 391.172 213.768C392.062 212.446 392.507 210.349 392.507 207.477C392.507 204.63 392.062 202.559 391.172 201.262C390.308 199.941 388.923 199.28 387.016 199.28C385.11 199.28 383.712 199.941 382.822 201.262C381.958 202.559 381.526 204.63 381.526 207.477C381.526 210.349 381.971 212.446 382.86 213.768C383.75 215.09 385.135 215.751 387.016 215.751ZM409.004 218.381C405.801 218.381 403.335 217.441 401.607 215.56C399.879 213.654 399.014 210.934 399.014 207.401C399.014 205.215 399.408 203.308 400.196 201.682C400.984 200.055 402.115 198.809 403.59 197.945C405.064 197.081 406.805 196.649 408.813 196.649C411.202 196.649 413.159 197.259 414.684 198.479C416.235 199.674 417.15 201.288 417.43 203.321C417.023 203.55 416.591 203.741 416.133 203.893C415.676 204.02 415.269 204.084 414.913 204.084C414.608 204.084 414.367 203.995 414.189 203.817C414.036 203.639 413.897 203.308 413.769 202.825C413.439 201.656 412.854 200.779 412.016 200.195C411.177 199.585 410.109 199.28 408.813 199.28C406.932 199.28 405.432 200.017 404.314 201.491C403.221 202.94 402.674 204.91 402.674 207.401C402.674 210.019 403.234 212.052 404.352 213.501C405.47 214.95 407.021 215.674 409.004 215.674C412.003 215.674 413.998 214.124 414.989 211.023C415.676 211.023 416.197 211.213 416.553 211.595C416.934 211.951 417.125 212.459 417.125 213.12C417.125 214.035 416.743 214.899 415.981 215.712C415.244 216.526 414.252 217.174 413.007 217.657C411.761 218.14 410.427 218.381 409.004 218.381ZM422.637 197.03H426.221V218H422.637V197.03ZM424.238 193.179C422.815 193.179 422.103 192.468 422.103 191.044V190.625C422.103 189.201 422.815 188.49 424.238 188.49H424.619C426.043 188.49 426.754 189.201 426.754 190.625V191.044C426.754 192.468 426.043 193.179 424.619 193.179H424.238ZM443.343 215.064C443.546 215.166 443.711 215.344 443.838 215.598C443.966 215.827 444.029 216.094 444.029 216.399C444.029 216.907 443.838 217.276 443.457 217.504C443.076 217.784 442.542 218 441.856 218.153C441.195 218.305 440.471 218.381 439.683 218.381C437.98 218.381 436.62 217.924 435.603 217.009C434.586 216.068 434.078 214.823 434.078 213.272V199.585H430.38V197.03H434.078V191.311H437.7V197.03H442.695V199.585H437.7V212.777C437.7 213.793 437.903 214.543 438.31 215.026C438.717 215.484 439.339 215.712 440.178 215.712C441.195 215.712 442.25 215.496 443.343 215.064ZM463.466 197.03L455.345 219.601C454.557 221.762 453.604 223.312 452.485 224.253C451.392 225.193 449.956 225.664 448.177 225.664C447.109 225.664 446.258 225.473 445.622 225.092C444.987 224.736 444.669 224.266 444.669 223.681C444.669 223.096 444.923 222.563 445.432 222.08C445.711 222.283 446.093 222.435 446.576 222.537C447.059 222.664 447.541 222.728 448.024 222.728C449.041 222.728 449.88 222.321 450.541 221.508C451.227 220.72 451.837 219.436 452.371 217.657L444.898 197.03H448.673L454.201 213.005L459.691 197.03H463.466Z" fill="black" fill-opacity="0.75"/>
<path d="M478.895 267.16H480.819V291.054H478.895V267.16ZM476.555 272.178L478.037 272.412C477.907 274.518 477.413 277.508 476.737 279.406L475.203 278.886C475.879 277.144 476.373 274.284 476.555 272.178ZM480.871 271.944L482.275 271.346C483.081 272.88 483.939 274.882 484.277 276.078L482.795 276.832C482.509 275.584 481.651 273.504 480.871 271.944ZM484.433 271.32H497.303V280.16H495.379V273.166H484.433V271.32ZM483.055 279.12H499.539V280.992H483.055V279.12ZM491.791 279.51C493.013 284.008 495.691 287.856 499.773 289.364C499.305 289.78 498.681 290.612 498.369 291.158C494.053 289.286 491.453 285.1 490.049 279.874L491.791 279.51ZM489.529 267.16H491.479V275.844C491.479 280.94 490.829 287.206 483.549 291.184C483.289 290.768 482.639 290.066 482.197 289.676C489.269 286.14 489.529 280.394 489.529 275.844V267.16ZM512.529 285.984V280.316H507.251V278.548H512.529V272.854H514.453V278.548H519.731V280.316H514.453V285.984H512.529ZM535.703 272.516H536.041L536.379 272.438L537.601 272.724C536.743 282.708 533.571 288.194 528.423 291.054C528.163 290.586 527.591 289.858 527.175 289.52C531.881 287.18 534.949 281.694 535.703 272.932V272.516ZM538.849 269.084H549.093V270.878H538.849V269.084ZM537.679 278.21H551.485V280.082H537.679V278.21ZM543.711 275.22H545.713V288.766C545.713 289.91 545.427 290.482 544.595 290.768C543.763 291.054 542.515 291.106 540.487 291.106C540.357 290.56 540.045 289.78 539.785 289.234C541.319 289.286 542.749 289.286 543.165 289.26C543.555 289.26 543.711 289.13 543.711 288.766V275.22ZM548.365 269.084H548.885L549.327 268.98L550.705 269.942C549.223 272.178 546.961 274.752 544.881 276.338C544.621 276 544.049 275.48 543.711 275.22C545.453 273.764 547.403 271.268 548.365 269.526V269.084ZM527.591 272.516H536.275V274.336H527.591V272.516ZM528.163 281.434L529.359 280.03C532.531 282.058 536.275 284.996 537.887 287.102L536.535 288.766C534.949 286.582 531.309 283.514 528.163 281.434ZM528.163 281.434C529.333 277.872 530.711 271.71 531.205 267.186L533.129 267.316C532.505 272.074 531.075 278.288 529.931 282.084L528.163 281.434ZM465.344 315.196V313.428H477.824V315.196H465.344ZM465.344 321.41V319.642H477.824V321.41H465.344ZM496.656 305.55H498.762V326.376C498.762 327.832 498.372 328.404 497.436 328.716C496.5 329.054 494.888 329.106 492.418 329.106C492.314 328.534 491.95 327.624 491.612 327.052C493.536 327.13 495.408 327.104 495.928 327.078C496.474 327.078 496.656 326.896 496.656 326.376V305.55ZM502.948 312.18L504.82 311.452C507.082 315.118 509.292 319.876 509.968 323.022L507.888 323.854C507.264 320.786 505.158 315.898 502.948 312.18ZM489.844 311.634L492.028 311.998C491.17 315.82 489.662 320.526 487.296 323.438C486.828 323.074 485.97 322.606 485.45 322.398C487.764 319.642 489.194 315.144 489.844 311.634ZM512.282 309.502H521.434V311.322H512.282V309.502ZM511.71 315.508H521.746V317.38H511.71V315.508ZM516 305.446H517.872V313.87C517.872 318.446 517.482 324.816 512.932 328.82C512.672 328.43 512.022 327.78 511.554 327.468C515.844 323.932 516 317.926 516 313.896V305.446ZM517.43 318.628C518.288 319.434 521.226 322.97 521.902 323.802L520.55 325.258C519.692 323.88 517.222 320.682 516.234 319.538L517.43 318.628ZM522.968 306.434H533.966V320.266H532.042V308.15H524.866V320.266H522.968V306.434ZM528.428 319.486H530.17V326.116C530.17 326.818 530.404 326.974 531.028 326.974H532.874C533.706 326.974 533.862 326.298 533.966 322.71C534.408 323.074 535.084 323.334 535.552 323.438C535.344 327.52 535.032 328.534 532.9 328.534H530.794C529.104 328.534 528.428 328.066 528.428 326.324V319.486ZM527.57 310.386H529.39V315.404C529.39 319.85 528.22 325.544 521.382 329.054C521.174 328.69 520.55 327.962 520.16 327.65C526.738 324.296 527.57 319.382 527.57 315.378V310.386ZM545.978 307.318H561.162V308.982H545.978V307.318ZM545.432 321.67H561.136V323.308H545.432V321.67ZM549.8 305.186H551.646V310.958H549.8V305.186ZM555.624 305.186H557.522V310.958H555.624V305.186ZM548.864 316.158V318.03H557.938V316.158H548.864ZM548.864 312.908V314.754H557.938V312.908H548.864ZM547.044 311.452H559.81V319.512H547.044V311.452ZM552.374 319.252H554.298C553.752 324.374 552.244 327.52 545.744 329.106C545.588 328.664 545.094 327.936 544.73 327.546C550.71 326.246 551.932 323.568 552.374 319.252ZM554.74 322.216C555.806 324.894 558.302 326.766 561.734 327.468C561.318 327.858 560.772 328.586 560.512 329.08C556.846 328.092 554.298 325.882 553.076 322.58L554.74 322.216ZM537.918 310.204H545.718V311.998H537.918V310.204ZM541.142 305.16H543.014V329.054H541.142V305.16ZM541.272 311.374L542.494 311.764C541.74 315.95 540.18 321.124 538.464 323.776C538.256 323.23 537.762 322.372 537.424 321.904C539.062 319.564 540.622 315.014 541.272 311.374ZM542.936 312.934C543.508 313.74 545.64 317.302 546.108 318.16L544.886 319.59C544.314 318.186 542.624 314.832 541.948 313.714L542.936 312.934Z" fill="black" fill-opacity="0.4"/>
<path d="M361.653 433.516H361.991L362.329 433.438L363.551 433.724C362.693 443.708 359.521 449.194 354.373 452.054C354.113 451.586 353.541 450.858 353.125 450.52C357.831 448.18 360.899 442.694 361.653 433.932V433.516ZM364.799 430.084H375.043V431.878H364.799V430.084ZM363.629 439.21H377.435V441.082H363.629V439.21ZM369.661 436.22H371.663V449.766C371.663 450.91 371.377 451.482 370.545 451.768C369.713 452.054 368.465 452.106 366.437 452.106C366.307 451.56 365.995 450.78 365.735 450.234C367.269 450.286 368.699 450.286 369.115 450.26C369.505 450.26 369.661 450.13 369.661 449.766V436.22ZM374.315 430.084H374.835L375.277 429.98L376.655 430.942C375.173 433.178 372.911 435.752 370.831 437.338C370.571 437 369.999 436.48 369.661 436.22C371.403 434.764 373.353 432.268 374.315 430.526V430.084ZM353.541 433.516H362.225V435.336H353.541V433.516ZM354.113 442.434L355.309 441.03C358.481 443.058 362.225 445.996 363.837 448.102L362.485 449.766C360.899 447.582 357.259 444.514 354.113 442.434ZM354.113 442.434C355.283 438.872 356.661 432.71 357.155 428.186L359.079 428.316C358.455 433.074 357.025 439.288 355.881 443.084L354.113 442.434ZM390.529 446.984V441.316H385.251V439.548H390.529V433.854H392.453V439.548H397.731V441.316H392.453V446.984H390.529ZM409.803 443.578H425.559V445.32H409.803V443.578ZM409.621 437.754H425.559V439.522H409.621V437.754ZM406.501 449.61H428.653V451.378H406.501V449.61ZM416.485 438.482H418.539V450.598H416.485V438.482ZM417.317 427.874L419.033 428.68C416.147 433.152 411.415 437.156 406.553 439.574C406.267 439.08 405.695 438.404 405.175 437.988C409.959 435.83 414.717 432.008 417.317 427.874ZM418.071 428.732C421.373 432.814 425.429 435.674 429.901 438.04C429.433 438.43 428.835 439.132 428.549 439.678C423.999 437.026 420.073 434.036 416.433 429.538L418.071 428.732ZM330.344 476.196V474.428H342.824V476.196H330.344ZM330.344 482.41V480.642H342.824V482.41H330.344ZM367.428 474.714H374.058V476.456H367.428V474.714ZM366.492 468.812H368.416V483.996H366.492V468.812ZM372.394 466.29L373.85 467.824C370.366 469.046 365.01 469.852 360.434 470.346C360.356 469.904 360.096 469.176 359.862 468.76C364.334 468.24 369.534 467.382 372.394 466.29ZM350.892 467.824H356.872V469.566H350.892V467.824ZM352.686 475.338H357.626V477.08H352.452L352.686 475.338ZM357.08 475.338H357.47L357.808 475.286L358.952 475.598C358.068 483.216 355.546 487.844 351.906 490.262C351.594 489.846 350.866 489.17 350.424 488.884C354.012 486.7 356.326 482.488 357.08 475.728V475.338ZM353.154 479.056C355.338 486.31 360.408 487.558 367.038 487.558C368.104 487.558 373.382 487.558 374.76 487.532C374.448 487.974 374.084 488.884 373.98 489.43H366.986C359.446 489.43 354.194 487.87 351.62 479.628L353.154 479.056ZM360.928 473.44H362.722V483.034H374.292V484.854H360.928V473.44ZM352.01 477.73C351.88 477.366 351.49 476.586 351.23 476.196C351.698 476.092 352.348 475.442 352.894 474.61C353.466 473.856 355.338 470.84 356.456 467.98V467.876L357.158 467.538L358.406 468.344C356.846 471.568 355.052 474.61 353.414 476.742V476.768C353.414 476.768 352.01 477.34 352.01 477.73ZM377.672 467.59L379.154 466.602C380.636 467.928 382.378 469.8 383.21 471.048L381.598 472.166C380.844 470.918 379.154 468.968 377.672 467.59ZM382.404 475.572V485.4H380.454V477.392H376.892V475.572H382.404ZM381.416 484.516C382.3 484.516 382.898 485.296 384.328 486.18C386.044 487.246 388.254 487.428 391.192 487.428C394.26 487.428 398.186 487.22 400.682 486.934C400.448 487.454 400.162 488.442 400.11 489.014C398.29 489.118 393.636 489.274 391.14 489.274C387.89 489.274 385.706 488.988 383.912 487.844C382.794 487.168 381.962 486.284 381.39 486.284C380.506 486.284 379.258 487.844 377.932 489.612L376.606 487.766C378.374 485.868 380.116 484.516 381.416 484.516ZM386.356 467.538H388.384V473.44C388.384 477.028 387.942 482.072 385.29 485.426C384.926 485.036 384.068 484.438 383.574 484.204C386.07 481.084 386.356 476.69 386.356 473.44V467.538ZM387.058 467.538H398.732V476.014H387.058V474.142H396.756V469.41H387.058V467.538ZM391.322 477.86L392.856 476.768C395.196 479.004 398.186 482.176 399.59 484.178L397.926 485.452C396.6 483.45 393.688 480.2 391.322 477.86ZM418.544 476.898L420.52 477.47C417.686 484.62 411.94 488.182 404.01 490.158C403.802 489.69 403.204 488.806 402.814 488.39C410.64 486.752 416.126 483.424 418.544 476.898ZM409.886 472.478L411.784 473.232C409.99 475.468 407.234 477.782 404.946 479.264C404.608 478.874 403.854 478.146 403.412 477.808C405.726 476.534 408.326 474.48 409.886 472.478ZM410.77 477.054C413.188 483.06 418.518 486.856 426.5 488.156C426.084 488.572 425.538 489.378 425.278 489.924C417.088 488.39 411.81 484.334 409.028 477.6L410.77 477.054ZM403.334 469.774H425.824V471.672H403.334V469.774ZM417.66 473.57L419.194 472.452C421.56 474.064 424.524 476.43 425.928 478.094L424.316 479.368C422.99 477.704 420.078 475.234 417.66 473.57ZM412.46 466.576L414.306 465.926C415.034 466.966 415.892 468.422 416.23 469.306L414.306 470.06C413.968 469.124 413.188 467.668 412.46 466.576ZM436.562 471.958H452.422V473.934H436.562V471.958ZM447.144 466.472H449.12V487.428C449.12 488.91 448.704 489.508 447.716 489.794C446.702 490.132 444.934 490.158 442.1 490.132C441.996 489.612 441.632 488.728 441.32 488.182C443.53 488.26 445.688 488.26 446.286 488.234C446.91 488.182 447.144 488.026 447.144 487.428V466.472ZM438.2 477.47L439.89 476.664C441.242 478.692 442.984 481.396 443.816 482.982L441.996 483.97C441.216 482.358 439.526 479.55 438.2 477.47ZM432.428 473.258L434.378 471.282L434.404 471.334V490.028H432.428V473.258ZM435.262 466.342L437.16 466.914C435.418 471.438 432.688 475.91 429.802 478.848C429.568 478.38 428.944 477.392 428.58 476.924C431.258 474.376 433.754 470.398 435.262 466.342Z" fill="black" fill-opacity="0.4"/>
<path d="M237.895 267.16H239.819V291.054H237.895V267.16ZM235.555 272.178L237.037 272.412C236.907 274.518 236.413 277.508 235.737 279.406L234.203 278.886C234.879 277.144 235.373 274.284 235.555 272.178ZM239.871 271.944L241.275 271.346C242.081 272.88 242.939 274.882 243.277 276.078L241.795 276.832C241.509 275.584 240.651 273.504 239.871 271.944ZM243.433 271.32H256.303V280.16H254.379V273.166H243.433V271.32ZM242.055 279.12H258.539V280.992H242.055V279.12ZM250.791 279.51C252.013 284.008 254.691 287.856 258.773 289.364C258.305 289.78 257.681 290.612 257.369 291.158C253.053 289.286 250.453 285.1 249.049 279.874L250.791 279.51ZM248.529 267.16H250.479V275.844C250.479 280.94 249.829 287.206 242.549 291.184C242.289 290.768 241.639 290.066 241.197 289.676C248.269 286.14 248.529 280.394 248.529 275.844V267.16ZM271.529 285.984V280.316H266.251V278.548H271.529V272.854H273.453V278.548H278.731V280.316H273.453V285.984H271.529ZM290.803 282.578H306.559V284.32H290.803V282.578ZM290.621 276.754H306.559V278.522H290.621V276.754ZM287.501 288.61H309.653V290.378H287.501V288.61ZM297.485 277.482H299.539V289.598H297.485V277.482ZM298.317 266.874L300.033 267.68C297.147 272.152 292.415 276.156 287.553 278.574C287.267 278.08 286.695 277.404 286.175 276.988C290.959 274.83 295.717 271.008 298.317 266.874ZM299.071 267.732C302.373 271.814 306.429 274.674 310.901 277.04C310.433 277.43 309.835 278.132 309.549 278.678C304.999 276.026 301.073 273.036 297.433 268.538L299.071 267.732ZM224.344 315.196V313.428H236.824V315.196H224.344ZM224.344 321.41V319.642H236.824V321.41H224.344ZM250.482 305.264L252.328 305.81C250.664 310.308 248.064 314.884 245.282 317.9C245.074 317.432 244.528 316.392 244.19 315.924C246.712 313.35 249.078 309.32 250.482 305.264ZM247.96 311.972L249.806 310.126L249.832 310.152V329.054H247.96V311.972ZM254.694 315.17H268.344V316.99H254.694V315.17ZM265.614 305.238L267.252 306.798C263.69 308.02 258.542 309.008 254.018 309.606C253.914 309.138 253.628 308.41 253.394 307.994C257.788 307.344 262.78 306.33 265.614 305.238ZM260.57 307.682H262.416C262.702 317.874 264.158 326.454 266.316 326.558C266.81 326.558 267.122 325.206 267.33 322.788C267.668 323.178 268.396 323.62 268.76 323.776C268.24 327.754 267.33 328.872 266.316 328.872C262.364 328.794 260.986 319.46 260.57 307.682ZM253.03 329.184L252.9 327.598L253.732 326.896L258.906 325.596C258.88 326.09 258.906 326.844 258.958 327.26C254.2 328.612 253.498 328.898 253.03 329.184ZM253.03 329.184C252.926 328.742 252.588 327.962 252.302 327.546C252.744 327.364 253.394 326.974 253.394 325.986V308.02L255.24 308.54V327.572C255.24 327.572 253.03 328.56 253.03 329.184ZM258.62 323.62L260.05 323.152C260.96 324.738 262 326.844 262.442 328.118L260.934 328.69C260.544 327.364 259.504 325.232 258.62 323.62ZM277.444 308.15V313.09H287.844V308.15H277.444ZM275.546 306.278H289.82V314.962H275.546V306.278ZM271.776 317.718H281.032V328.872H279.082V319.59H273.622V329.08H271.776V317.718ZM283.866 317.718H293.642V328.924H291.692V319.59H285.738V329.08H283.866V317.718ZM272.608 325.804H279.862V327.676H272.608V325.804ZM284.828 325.804H292.55V327.676H284.828V325.804ZM300.74 310.75H320.318V312.518H300.74V310.75ZM309.684 307.526L311.738 307.63C311.504 310.23 311.114 313.558 310.776 315.586H308.878C309.19 313.506 309.502 310.074 309.684 307.526ZM311.036 325.206L312.44 324.036C315.014 324.998 318.29 326.558 320.11 327.598L318.732 328.924C316.938 327.832 313.688 326.194 311.036 325.206ZM317.224 305.29L318.758 306.85C313.844 307.942 306.122 308.54 299.726 308.774C299.674 308.28 299.44 307.526 299.258 307.084C305.524 306.85 313.116 306.226 317.224 305.29ZM299.258 307.084H301.156V314.364C301.156 318.576 300.818 324.686 298.244 328.794C297.88 328.482 297.022 327.962 296.554 327.78C299.024 323.88 299.258 318.342 299.258 314.364V307.084ZM309.684 317.952H311.712V320.344C311.712 322.996 310.802 326.61 302.404 329.08C302.17 328.638 301.572 327.936 301.104 327.572C309.164 325.466 309.684 322.372 309.684 320.292V317.952ZM303.158 315.066H318.316V324.14H316.288V316.886H305.108V324.036H303.158V315.066Z" fill="black" fill-opacity="0.4"/>
<path d="M553.476 406.358V413.602H568.727V406.358H553.476ZM550.693 403.613H571.625V416.347H550.693V403.613ZM545.165 420.389H558.738V436.745H555.878V423.134H547.872V437.05H545.165V420.389ZM562.894 420.389H577.229V436.821H574.37V423.134H565.639V437.05H562.894V420.389ZM546.385 432.246H557.022V434.991H546.385V432.246ZM564.304 432.246H575.628V434.991H564.304V432.246ZM587.638 410.171H616.347V412.763H587.638V410.171ZM600.754 405.443L603.766 405.595C603.422 409.408 602.851 414.288 602.355 417.262H599.572C600.029 414.212 600.487 409.179 600.754 405.443ZM602.736 431.369L604.795 429.654C608.57 431.064 613.374 433.352 616.042 434.877L614.022 436.821C611.391 435.22 606.625 432.818 602.736 431.369ZM611.81 402.164L614.06 404.452C606.854 406.053 595.53 406.93 586.151 407.273C586.075 406.549 585.732 405.443 585.465 404.795C594.653 404.452 605.786 403.537 611.81 402.164ZM585.465 404.795H588.248V415.47C588.248 421.647 587.752 430.607 583.978 436.631C583.444 436.173 582.186 435.411 581.499 435.144C585.122 429.425 585.465 421.304 585.465 415.47V404.795ZM600.754 420.732H603.727V424.24C603.727 428.128 602.393 433.428 590.078 437.05C589.735 436.402 588.858 435.373 588.172 434.839C599.991 431.751 600.754 427.213 600.754 424.163V420.732ZM591.184 416.5H613.412V429.806H610.438V419.169H594.043V429.654H591.184V416.5ZM566.211 470.503C566.211 473.604 565.728 476.222 564.762 478.357C563.796 480.492 562.398 482.068 560.568 483.085C561.534 484.254 562.398 485.258 563.16 486.097C562.576 486.86 561.75 487.241 560.682 487.241C559.767 487.241 559.005 486.834 558.395 486.021C557.912 485.309 557.505 484.699 557.175 484.191C556.412 484.318 555.675 484.381 554.963 484.381C551.354 484.381 548.571 483.187 546.613 480.797C544.682 478.383 543.716 474.951 543.716 470.503C543.716 466.157 544.682 462.814 546.613 460.476C548.571 458.112 551.354 456.93 554.963 456.93C558.573 456.93 561.343 458.112 563.275 460.476C565.232 462.814 566.211 466.157 566.211 470.503ZM555.459 481.369C555.179 480.835 554.912 480.378 554.658 479.997C554.429 479.59 554.239 479.247 554.086 478.967L553.476 477.938H556.908C557.391 478.777 557.95 479.628 558.585 480.492C561.076 478.993 562.322 475.663 562.322 470.503C562.322 466.945 561.712 464.301 560.492 462.573C559.297 460.819 557.454 459.942 554.963 459.942C552.472 459.942 550.617 460.819 549.397 462.573C548.202 464.301 547.605 466.945 547.605 470.503C547.605 477.747 550.057 481.369 554.963 481.369H555.459ZM588.122 479.425C588.122 481.077 588.312 482.475 588.694 483.619C587.982 484 587.194 484.191 586.33 484.191C585.72 484.191 585.275 483.987 584.995 483.581C584.741 483.174 584.589 482.424 584.538 481.331C583.801 482.272 582.822 483.021 581.602 483.581C580.407 484.114 579.098 484.381 577.675 484.381C575.489 484.381 573.837 483.797 572.718 482.627C571.625 481.433 571.079 479.666 571.079 477.328V463.03H574.701V477.061C574.701 478.738 574.993 479.959 575.578 480.721C576.188 481.458 577.167 481.827 578.514 481.827C579.708 481.827 580.827 481.522 581.869 480.912C582.911 480.276 583.788 479.387 584.5 478.243V463.03H588.122V479.425ZM609.976 477.9C609.976 479.374 610.064 480.492 610.242 481.255C610.446 482.017 610.789 482.678 611.272 483.237C610.916 483.517 610.484 483.759 609.976 483.962C609.467 484.14 608.997 484.229 608.565 484.229C607.396 484.229 606.697 483.187 606.468 481.102C605.705 482.144 604.727 482.958 603.532 483.542C602.363 484.102 601.041 484.381 599.567 484.381C597.661 484.381 596.123 483.886 594.954 482.894C593.81 481.903 593.238 480.581 593.238 478.929C593.238 474.252 597.61 471.698 606.353 471.266V469.779C606.353 468.304 605.985 467.211 605.248 466.5C604.511 465.788 603.367 465.432 601.816 465.432C600.8 465.432 599.846 465.636 598.957 466.042C598.067 466.449 597.051 467.161 595.907 468.177C595.729 468.304 595.564 468.368 595.411 468.368C595.081 468.368 594.725 468.203 594.343 467.872C593.962 467.516 593.606 467.034 593.276 466.423C594.343 465.229 595.665 464.301 597.241 463.64C598.817 462.979 600.457 462.649 602.16 462.649C604.6 462.649 606.506 463.284 607.879 464.555C609.277 465.801 609.976 467.542 609.976 469.779V477.9ZM600.368 481.751C601.537 481.751 602.63 481.407 603.646 480.721C604.663 480.009 605.566 479.005 606.353 477.709V473.629C600.05 473.909 596.898 475.599 596.898 478.7C596.898 479.692 597.19 480.454 597.775 480.988C598.385 481.496 599.249 481.751 600.368 481.751ZM616.135 453.842H619.719V484H616.135V453.842ZM626.718 463.03H630.302V484H626.718V463.03ZM628.319 459.179C626.896 459.179 626.184 458.468 626.184 457.044V456.625C626.184 455.201 626.896 454.49 628.319 454.49H628.701C630.124 454.49 630.836 455.201 630.836 456.625V457.044C630.836 458.468 630.124 459.179 628.701 459.179H628.319ZM647.424 481.064C647.628 481.166 647.793 481.344 647.92 481.598C648.047 481.827 648.11 482.094 648.11 482.399C648.11 482.907 647.92 483.276 647.539 483.504C647.157 483.784 646.624 484 645.937 484.153C645.276 484.305 644.552 484.381 643.764 484.381C642.061 484.381 640.701 483.924 639.684 483.009C638.668 482.068 638.159 480.823 638.159 479.272V465.585H634.461V463.03H638.159V457.311H641.781V463.03H646.776V465.585H641.781V478.777C641.781 479.793 641.985 480.543 642.391 481.026C642.798 481.484 643.421 481.712 644.26 481.712C645.276 481.712 646.331 481.496 647.424 481.064ZM667.547 463.03L659.426 485.601C658.638 487.762 657.685 489.312 656.567 490.253C655.474 491.193 654.038 491.664 652.258 491.664C651.191 491.664 650.339 491.473 649.704 491.092C649.068 490.736 648.751 490.266 648.751 489.681C648.751 489.096 649.005 488.563 649.513 488.08C649.793 488.283 650.174 488.435 650.657 488.537C651.14 488.664 651.623 488.728 652.106 488.728C653.122 488.728 653.961 488.321 654.622 487.508C655.308 486.72 655.918 485.436 656.452 483.657L648.979 463.03H652.754L658.282 479.005L663.773 463.03H667.547Z" fill="black" fill-opacity="0.75"/>
<path d="M165.186 408.341H178.607V411.009H165.186V408.341ZM164.347 417.148H179.064V419.893H164.347V417.148ZM170.638 402.393H173.384V414.746C173.384 421.456 172.812 430.797 166.139 436.669C165.758 436.097 164.805 435.144 164.119 434.686C170.41 429.501 170.638 420.694 170.638 414.784V402.393ZM172.735 421.723C173.994 422.905 178.302 428.09 179.293 429.31L177.311 431.445C176.052 429.425 172.43 424.735 170.982 423.058L172.735 421.723ZM180.856 403.842H196.984V424.125H194.163V406.358H183.64V424.125H180.856V403.842ZM188.863 422.981H191.418V432.704C191.418 433.733 191.761 433.962 192.676 433.962H195.383C196.603 433.962 196.832 432.971 196.984 427.709C197.632 428.243 198.624 428.624 199.31 428.777C199.005 434.763 198.547 436.249 195.421 436.249H192.333C189.854 436.249 188.863 435.563 188.863 433.009V422.981ZM187.605 409.637H190.274V416.995C190.274 423.515 188.558 431.865 178.531 437.012C178.226 436.478 177.311 435.411 176.739 434.953C186.385 430.035 187.605 422.829 187.605 416.957V409.637ZM214.599 405.138H236.865V407.578H214.599V405.138ZM213.798 426.184H236.827V428.586H213.798V426.184ZM220.203 402.012H222.91V410.476H220.203V402.012ZM228.744 402.012H231.527V410.476H228.744V402.012ZM218.831 418.101V420.846H232.137V418.101H218.831ZM218.831 413.335V416.042H232.137V413.335H218.831ZM216.162 411.2H234.882V423.019H216.162V411.2ZM223.978 422.638H226.799C225.999 430.149 223.787 434.763 214.256 437.088C214.027 436.44 213.302 435.373 212.769 434.801C221.538 432.894 223.33 428.967 223.978 422.638ZM227.448 426.985C229.011 430.912 232.671 433.657 237.704 434.686C237.094 435.258 236.293 436.326 235.912 437.05C230.536 435.601 226.799 432.361 225.007 427.518L227.448 426.985ZM202.779 409.37H214.217V412.001H202.779V409.37ZM207.507 401.973H210.252V437.012H207.507V401.973ZM207.698 411.086L209.49 411.658C208.384 417.796 206.096 425.383 203.58 429.272C203.275 428.472 202.551 427.213 202.055 426.527C204.457 423.096 206.745 416.423 207.698 411.086ZM210.138 413.373C210.977 414.555 214.103 419.779 214.789 421.037L212.997 423.134C212.159 421.075 209.68 416.157 208.689 414.517L210.138 413.373ZM140.026 484.381C138.171 484.381 136.493 484.127 134.994 483.619C133.519 483.085 132.363 482.361 131.524 481.445C130.685 480.505 130.266 479.45 130.266 478.281C130.266 477.646 130.507 477.137 130.99 476.756C131.499 476.375 132.185 476.171 133.049 476.146C133.38 477.849 134.142 479.158 135.337 480.073C136.557 480.963 138.145 481.407 140.103 481.407C142.06 481.407 143.598 480.988 144.716 480.149C145.86 479.285 146.432 478.128 146.432 476.68C146.432 475.434 145.923 474.443 144.907 473.706C143.89 472.943 142.111 472.219 139.569 471.532C137.434 470.948 135.743 470.325 134.498 469.664C133.253 468.978 132.337 468.19 131.753 467.3C131.194 466.385 130.914 465.292 130.914 464.021C130.914 461.836 131.74 460.107 133.392 458.836C135.044 457.565 137.307 456.93 140.179 456.93C142.619 456.93 144.665 457.502 146.317 458.646C147.995 459.789 149.126 461.403 149.711 463.488C149.456 463.742 149.113 463.958 148.681 464.136C148.249 464.288 147.83 464.365 147.423 464.365C147.042 464.365 146.711 464.276 146.432 464.098C146.178 463.92 145.961 463.628 145.784 463.221C145.25 462.153 144.487 461.327 143.496 460.743C142.53 460.158 141.424 459.866 140.179 459.866C138.374 459.866 137.014 460.196 136.099 460.857C135.184 461.518 134.727 462.509 134.727 463.831C134.727 464.568 134.892 465.191 135.222 465.699C135.578 466.182 136.163 466.64 136.976 467.072C137.815 467.478 139.01 467.91 140.56 468.368C143.229 469.156 145.25 469.893 146.622 470.579C147.995 471.266 148.948 472.041 149.482 472.905C150.041 473.744 150.321 474.824 150.321 476.146C150.321 477.798 149.889 479.247 149.024 480.492C148.186 481.738 146.991 482.704 145.44 483.39C143.89 484.051 142.085 484.381 140.026 484.381ZM163.497 484.381C160.295 484.381 157.829 483.441 156.101 481.56C154.372 479.654 153.508 476.934 153.508 473.401C153.508 471.215 153.902 469.308 154.69 467.682C155.478 466.055 156.609 464.809 158.083 463.945C159.558 463.081 161.299 462.649 163.307 462.649C165.696 462.649 167.653 463.259 169.178 464.479C170.729 465.674 171.644 467.288 171.923 469.321C171.517 469.55 171.085 469.741 170.627 469.893C170.17 470.02 169.763 470.084 169.407 470.084C169.102 470.084 168.861 469.995 168.683 469.817C168.53 469.639 168.39 469.308 168.263 468.825C167.933 467.656 167.348 466.779 166.509 466.195C165.671 465.585 164.603 465.28 163.307 465.28C161.426 465.28 159.926 466.017 158.808 467.491C157.715 468.94 157.168 470.91 157.168 473.401C157.168 476.019 157.728 478.052 158.846 479.501C159.964 480.95 161.515 481.674 163.497 481.674C166.497 481.674 168.492 480.124 169.483 477.023C170.17 477.023 170.691 477.213 171.047 477.595C171.428 477.951 171.618 478.459 171.618 479.12C171.618 480.035 171.237 480.899 170.475 481.712C169.737 482.526 168.746 483.174 167.501 483.657C166.255 484.14 164.921 484.381 163.497 484.381ZM183.993 484.381C180.994 484.381 178.719 483.454 177.169 481.598C175.618 479.742 174.843 477.035 174.843 473.477C174.843 469.918 175.618 467.224 177.169 465.394C178.719 463.564 180.994 462.649 183.993 462.649C186.993 462.649 189.268 463.564 190.818 465.394C192.394 467.224 193.182 469.918 193.182 473.477C193.182 477.035 192.394 479.742 190.818 481.598C189.268 483.454 186.993 484.381 183.993 484.381ZM183.993 481.751C185.9 481.751 187.285 481.09 188.149 479.768C189.039 478.446 189.484 476.349 189.484 473.477C189.484 470.63 189.039 468.559 188.149 467.262C187.285 465.941 185.9 465.28 183.993 465.28C182.087 465.28 180.689 465.941 179.799 467.262C178.935 468.559 178.503 470.63 178.503 473.477C178.503 476.349 178.948 478.446 179.837 479.768C180.727 481.09 182.112 481.751 183.993 481.751ZM207.391 462.649C210.187 462.649 212.322 463.564 213.797 465.394C215.271 467.224 216.008 469.88 216.008 473.363C216.008 475.574 215.614 477.518 214.826 479.196C214.038 480.848 212.907 482.132 211.433 483.047C209.984 483.936 208.281 484.381 206.324 484.381C204.57 484.381 202.905 484.076 201.329 483.466V492.502H197.707V470.465C197.707 466.779 197.466 464.517 196.983 463.678C197.466 463.424 197.961 463.234 198.47 463.106C198.978 462.954 199.423 462.878 199.804 462.878C200.643 462.878 201.138 463.628 201.291 465.127C202.994 463.475 205.027 462.649 207.391 462.649ZM206.057 481.751C208.039 481.751 209.565 481.026 210.632 479.577C211.725 478.128 212.272 476.057 212.272 473.363C212.272 470.643 211.827 468.622 210.937 467.3C210.073 465.953 208.751 465.28 206.972 465.28C205.93 465.28 204.913 465.521 203.922 466.004C202.93 466.487 202.066 467.148 201.329 467.987V480.759C201.99 481.064 202.727 481.306 203.54 481.484C204.379 481.662 205.218 481.751 206.057 481.751ZM237.575 472.066C237.575 472.575 237.537 473.235 237.46 474.049H222.82C222.921 476.464 223.48 478.345 224.497 479.692C225.514 481.013 226.912 481.674 228.691 481.674C229.886 481.674 230.877 481.433 231.665 480.95C232.478 480.467 233.266 479.628 234.029 478.433C234.232 478.154 234.512 478.014 234.868 478.014C235.452 478.014 236.215 478.357 237.155 479.044C236.494 480.721 235.427 482.03 233.953 482.971C232.478 483.911 230.725 484.381 228.691 484.381C226.734 484.381 225.031 483.949 223.582 483.085C222.159 482.195 221.066 480.937 220.303 479.31C219.541 477.658 219.159 475.714 219.159 473.477C219.159 470.096 220.011 467.453 221.714 465.547C223.442 463.615 225.819 462.649 228.844 462.649C231.614 462.649 233.762 463.475 235.287 465.127C236.812 466.779 237.575 469.092 237.575 472.066ZM233.876 471.609C233.876 467.415 232.161 465.318 228.729 465.318C227.026 465.318 225.679 465.852 224.688 466.919C223.697 467.987 223.099 469.55 222.896 471.609H233.876Z" fill="black" fill-opacity="0.75"/>
</g>
</svg>
