<svg width="785" height="540" viewBox="0 0 785 540" fill="none" xmlns="http://www.w3.org/2000/svg">
<path d="M391.5 18L763.985 521.847H19.0156L391.5 18Z" fill="white" fill-opacity="0.75"/>
<g style="mix-blend-mode:darken">
<path d="M273.354 178.896L527.709 522.038H19L273.354 178.896Z" fill="#E647A6" fill-opacity="0.6"/>
</g>
<g style="mix-blend-mode:darken">
<path d="M391.5 18L645.854 361.142H137.146L391.5 18Z" fill="#FBAF1C" fill-opacity="0.6"/>
</g>
<g style="mix-blend-mode:darken">
<path d="M509.646 178.896L764 522.038H255.291L509.646 178.896Z" fill="#57BCF4" fill-opacity="0.6"/>
</g>
<g style="mix-blend-mode:plus-darker">
<path d="M20.5277 521.085L391.5 19.2827L762.473 521.085H20.5277Z" stroke="black" stroke-opacity="0.5" stroke-width="1.52508"/>
<path d="M20.5144 521.275L273.354 180.176L526.195 521.275H20.5144Z" stroke="black" stroke-opacity="0.5" stroke-width="1.52508"/>
<path d="M138.66 360.38L391.5 19.2805L644.34 360.38H138.66Z" stroke="black" stroke-opacity="0.5" stroke-width="1.52508"/>
<path d="M256.805 521.275L509.646 180.176L762.486 521.275H256.805Z" stroke="black" stroke-opacity="0.5" stroke-width="1.52508"/>
</g>
<g style="mix-blend-mode:plus-darker">
<path d="M342.736 163.755C342.024 168.636 340.906 173.262 339.381 177.634C337.881 182.005 335.898 186.276 333.433 190.444H329.811C327.345 186.25 325.35 181.967 323.825 177.595C322.3 173.224 321.181 168.61 320.47 163.755H324.397C325.591 172.296 327.993 179.845 331.603 186.403C335.212 179.845 337.614 172.296 338.809 163.755H342.736ZM363.961 178.51C363.961 179.019 363.923 179.68 363.846 180.493H349.206C349.307 182.908 349.867 184.789 350.883 186.136C351.9 187.458 353.298 188.118 355.077 188.118C356.272 188.118 357.263 187.877 358.051 187.394C358.865 186.911 359.652 186.072 360.415 184.878C360.618 184.598 360.898 184.458 361.254 184.458C361.838 184.458 362.601 184.801 363.541 185.488C362.881 187.165 361.813 188.474 360.339 189.415C358.865 190.355 357.111 190.825 355.077 190.825C353.12 190.825 351.417 190.393 349.968 189.529C348.545 188.64 347.452 187.381 346.689 185.755C345.927 184.102 345.546 182.158 345.546 179.921C345.546 176.541 346.397 173.897 348.1 171.991C349.828 170.059 352.205 169.093 355.23 169.093C358 169.093 360.148 169.919 361.673 171.571C363.198 173.224 363.961 175.537 363.961 178.51ZM360.263 178.053C360.263 173.859 358.547 171.762 355.115 171.762C353.412 171.762 352.065 172.296 351.074 173.363C350.083 174.431 349.485 175.994 349.282 178.053H360.263ZM368.703 160.286H372.287V190.444H368.703V160.286ZM386.149 190.825C383.15 190.825 380.875 189.898 379.324 188.042C377.774 186.187 376.999 183.48 376.999 179.921C376.999 176.363 377.774 173.668 379.324 171.838C380.875 170.008 383.15 169.093 386.149 169.093C389.149 169.093 391.423 170.008 392.974 171.838C394.55 173.668 395.338 176.363 395.338 179.921C395.338 183.48 394.55 186.187 392.974 188.042C391.423 189.898 389.149 190.825 386.149 190.825ZM386.149 188.195C388.056 188.195 389.441 187.534 390.305 186.212C391.195 184.89 391.639 182.793 391.639 179.921C391.639 177.074 391.195 175.003 390.305 173.706C389.441 172.385 388.056 171.724 386.149 171.724C384.243 171.724 382.845 172.385 381.955 173.706C381.091 175.003 380.659 177.074 380.659 179.921C380.659 182.793 381.104 184.89 381.993 186.212C382.883 187.534 384.268 188.195 386.149 188.195ZM408.137 190.825C404.934 190.825 402.468 189.885 400.74 188.004C399.011 186.098 398.147 183.378 398.147 179.845C398.147 177.659 398.541 175.753 399.329 174.126C400.117 172.499 401.248 171.254 402.722 170.389C404.197 169.525 405.938 169.093 407.946 169.093C410.335 169.093 412.292 169.703 413.817 170.923C415.368 172.118 416.283 173.732 416.563 175.765C416.156 175.994 415.724 176.185 415.266 176.337C414.809 176.464 414.402 176.528 414.046 176.528C413.741 176.528 413.5 176.439 413.322 176.261C413.169 176.083 413.029 175.753 412.902 175.27C412.572 174.1 411.987 173.224 411.149 172.639C410.31 172.029 409.242 171.724 407.946 171.724C406.065 171.724 404.565 172.461 403.447 173.935C402.354 175.384 401.807 177.354 401.807 179.845C401.807 182.463 402.367 184.496 403.485 185.945C404.603 187.394 406.154 188.118 408.137 188.118C411.136 188.118 413.131 186.568 414.122 183.467C414.809 183.467 415.33 183.658 415.686 184.039C416.067 184.395 416.258 184.903 416.258 185.564C416.258 186.479 415.876 187.343 415.114 188.157C414.377 188.97 413.385 189.618 412.14 190.101C410.894 190.584 409.56 190.825 408.137 190.825ZM421.77 169.474H425.353V190.444H421.77V169.474ZM423.371 165.624C421.947 165.624 421.236 164.912 421.236 163.488V163.069C421.236 161.646 421.947 160.934 423.371 160.934H423.752C425.176 160.934 425.887 161.646 425.887 163.069V163.488C425.887 164.912 425.176 165.624 423.752 165.624H423.371ZM442.476 187.508C442.679 187.61 442.844 187.788 442.971 188.042C443.098 188.271 443.162 188.538 443.162 188.843C443.162 189.351 442.971 189.72 442.59 189.949C442.209 190.228 441.675 190.444 440.989 190.597C440.328 190.749 439.604 190.825 438.816 190.825C437.113 190.825 435.753 190.368 434.736 189.453C433.719 188.512 433.211 187.267 433.211 185.716V172.029H429.513V169.474H433.211V163.755H436.833V169.474H441.828V172.029H436.833V185.221C436.833 186.238 437.036 186.987 437.443 187.47C437.85 187.928 438.472 188.157 439.311 188.157C440.328 188.157 441.383 187.941 442.476 187.508ZM462.599 169.474L454.478 192.046C453.69 194.206 452.737 195.757 451.618 196.697C450.525 197.637 449.089 198.108 447.31 198.108C446.242 198.108 445.391 197.917 444.755 197.536C444.12 197.18 443.802 196.71 443.802 196.125C443.802 195.541 444.056 195.007 444.565 194.524C444.844 194.727 445.226 194.88 445.709 194.981C446.191 195.108 446.674 195.172 447.157 195.172C448.174 195.172 449.013 194.765 449.674 193.952C450.36 193.164 450.97 191.88 451.504 190.101L444.031 169.474H447.805L453.334 185.45L458.824 169.474H462.599Z" fill="black" fill-opacity="0.75"/>
<path d="M486.283 264.602V269.112H491.915V271.114H486.283V278H483.511V262.6H492.861V264.602H486.283ZM504.483 273.952C504.483 274.979 504.535 275.734 504.637 276.218C504.74 276.702 504.931 277.12 505.209 277.472C504.96 277.663 504.637 277.824 504.241 277.956C503.86 278.073 503.508 278.132 503.185 278.132C502.481 278.132 502.056 277.553 501.909 276.394C501.103 277.611 499.849 278.22 498.147 278.22C497.062 278.22 496.182 277.934 495.507 277.362C494.847 276.775 494.517 276.013 494.517 275.074C494.517 273.739 495.111 272.727 496.299 272.038C497.487 271.334 499.328 270.916 501.821 270.784V269.794C501.821 268.357 501.066 267.638 499.555 267.638C499.013 267.638 498.499 267.748 498.015 267.968C497.531 268.173 496.959 268.533 496.299 269.046C496.197 269.119 496.094 269.156 495.991 269.156C495.757 269.156 495.507 269.024 495.243 268.76C494.979 268.481 494.745 268.107 494.539 267.638C495.141 267.051 495.925 266.582 496.893 266.23C497.861 265.863 498.844 265.68 499.841 265.68C501.323 265.68 502.467 266.039 503.273 266.758C504.08 267.477 504.483 268.489 504.483 269.794V273.952ZM498.939 276.394C500.069 276.394 501.029 275.69 501.821 274.282V272.302C498.771 272.434 497.245 273.277 497.245 274.832C497.245 275.331 497.392 275.719 497.685 275.998C497.979 276.262 498.397 276.394 498.939 276.394ZM511.401 278.22C510.535 278.22 509.751 278.117 509.047 277.912C508.357 277.707 507.807 277.428 507.397 277.076C507.001 276.709 506.803 276.306 506.803 275.866C506.803 275.529 506.92 275.243 507.155 275.008C507.389 274.759 507.719 274.612 508.145 274.568C508.511 275.184 508.959 275.646 509.487 275.954C510.029 276.247 510.697 276.394 511.489 276.394C512.251 276.394 512.809 276.24 513.161 275.932C513.527 275.609 513.711 275.184 513.711 274.656C513.711 274.172 513.491 273.805 513.051 273.556C512.625 273.307 511.958 273.05 511.049 272.786C510.213 272.537 509.523 272.295 508.981 272.06C508.438 271.811 507.976 271.444 507.595 270.96C507.213 270.476 507.023 269.853 507.023 269.09C507.023 268.386 507.228 267.777 507.639 267.264C508.064 266.736 508.614 266.34 509.289 266.076C509.978 265.812 510.711 265.68 511.489 265.68C512.515 265.68 513.417 265.878 514.195 266.274C514.987 266.67 515.61 267.213 516.065 267.902C515.874 268.21 515.639 268.474 515.361 268.694C515.097 268.899 514.855 269.002 514.635 269.002C514.385 269.002 514.173 268.892 513.997 268.672C513.322 267.865 512.501 267.462 511.533 267.462C510.917 267.462 510.433 267.594 510.081 267.858C509.729 268.107 509.553 268.496 509.553 269.024C509.553 269.376 509.67 269.669 509.905 269.904C510.139 270.124 510.425 270.3 510.763 270.432C511.115 270.564 511.606 270.718 512.237 270.894C513.073 271.129 513.755 271.363 514.283 271.598C514.825 271.818 515.287 272.163 515.669 272.632C516.05 273.101 516.241 273.725 516.241 274.502C516.241 275.675 515.815 276.592 514.965 277.252C514.114 277.897 512.926 278.22 511.401 278.22ZM524.932 276.086C525.064 276.145 525.174 276.247 525.262 276.394C525.35 276.526 525.394 276.687 525.394 276.878C525.394 277.171 525.291 277.406 525.086 277.582C524.851 277.773 524.499 277.927 524.03 278.044C523.575 278.161 523.069 278.22 522.512 278.22C521.514 278.22 520.715 277.949 520.114 277.406C519.527 276.849 519.234 276.108 519.234 275.184V267.682H517.232V265.9H519.234V262.6H521.896V265.9H524.47V267.682H521.896V274.898C521.896 275.455 521.998 275.859 522.204 276.108C522.409 276.343 522.739 276.46 523.194 276.46C523.751 276.46 524.33 276.335 524.932 276.086ZM543.067 275.47C543.493 275.734 543.881 275.91 544.233 275.998C544.6 276.071 545.018 276.115 545.487 276.13V277.01C545.487 277.391 545.355 277.692 545.091 277.912C544.842 278.117 544.468 278.22 543.969 278.22C543.001 278.22 542.055 277.868 541.131 277.164C539.943 277.868 538.616 278.22 537.149 278.22C536.313 278.22 535.499 278.066 534.707 277.758C533.93 277.45 533.292 276.995 532.793 276.394C532.295 275.793 532.045 275.074 532.045 274.238C532.045 273.534 532.155 272.933 532.375 272.434C532.61 271.935 532.94 271.488 533.365 271.092C533.805 270.681 534.392 270.241 535.125 269.772C534.304 268.393 533.893 267.183 533.893 266.142C533.893 265.379 534.062 264.712 534.399 264.14C534.751 263.568 535.221 263.135 535.807 262.842C536.394 262.534 537.039 262.38 537.743 262.38C538.403 262.38 539.012 262.512 539.569 262.776C540.141 263.025 540.596 263.399 540.933 263.898C541.285 264.397 541.461 264.991 541.461 265.68C541.461 266.296 541.315 266.853 541.021 267.352C540.743 267.836 540.354 268.276 539.855 268.672C539.371 269.068 538.711 269.53 537.875 270.058C538.359 270.747 538.917 271.466 539.547 272.214C540.178 272.947 540.772 273.578 541.329 274.106C541.96 272.962 542.261 271.561 542.231 269.904C543.009 269.904 543.581 270.058 543.947 270.366C544.314 270.674 544.497 271.165 544.497 271.84C544.497 272.383 544.373 272.977 544.123 273.622C543.889 274.267 543.537 274.883 543.067 275.47ZM537.809 264.14C537.325 264.14 536.922 264.323 536.599 264.69C536.291 265.057 536.137 265.526 536.137 266.098C536.137 266.523 536.203 266.941 536.335 267.352C536.467 267.748 536.673 268.188 536.951 268.672C537.817 268.144 538.425 267.667 538.777 267.242C539.144 266.802 539.327 266.252 539.327 265.592C539.327 265.152 539.195 264.8 538.931 264.536C538.667 264.272 538.293 264.14 537.809 264.14ZM534.663 274.04C534.663 274.773 534.927 275.367 535.455 275.822C535.998 276.262 536.687 276.482 537.523 276.482C538.359 276.482 539.1 276.277 539.745 275.866C538.381 274.443 537.157 272.918 536.071 271.29C535.529 271.701 535.155 272.104 534.949 272.5C534.759 272.896 534.663 273.409 534.663 274.04ZM464.136 291.6V307H461.342V300.18H454.852V307H452.08V291.6H454.852V298.134H461.342V291.6H464.136ZM467.554 294.9H470.238V307H467.554V294.9ZM468.764 292.678C467.781 292.678 467.29 292.187 467.29 291.204V290.918C467.29 289.935 467.781 289.444 468.764 289.444H469.028C470.01 289.444 470.502 289.935 470.502 290.918V291.204C470.502 292.187 470.01 292.678 469.028 292.678H468.764ZM483.571 293.822C484.041 293.822 484.363 293.983 484.539 294.306C484.715 294.629 484.796 295.179 484.781 295.956C483.74 295.956 482.999 296.081 482.559 296.33C483.087 297.019 483.351 297.819 483.351 298.728C483.351 300.107 482.911 301.155 482.031 301.874C481.166 302.593 479.89 302.952 478.203 302.952C477.411 302.952 476.854 303.011 476.531 303.128C476.209 303.231 476.047 303.421 476.047 303.7C476.047 303.979 476.238 304.169 476.619 304.272C477.015 304.375 477.763 304.426 478.863 304.426C480.579 304.426 481.899 304.719 482.823 305.306C483.762 305.893 484.231 306.721 484.231 307.792C484.231 308.951 483.711 309.86 482.669 310.52C481.643 311.18 480.227 311.51 478.423 311.51C476.634 311.51 475.263 311.224 474.309 310.652C473.356 310.095 472.879 309.295 472.879 308.254C472.879 307.594 473.107 307.059 473.561 306.648C474.031 306.237 474.713 305.959 475.607 305.812V305.746C475.05 305.629 474.617 305.423 474.309 305.13C474.001 304.822 473.847 304.448 473.847 304.008C473.847 303.627 474.001 303.289 474.309 302.996C474.632 302.703 475.057 302.49 475.585 302.358C474.896 301.991 474.353 301.515 473.957 300.928C473.561 300.341 473.363 299.696 473.363 298.992C473.363 297.599 473.811 296.535 474.705 295.802C475.615 295.054 476.92 294.68 478.621 294.68C479.545 294.68 480.367 294.849 481.085 295.186C481.437 294.775 481.841 294.445 482.295 294.196C482.75 293.947 483.175 293.822 483.571 293.822ZM478.335 301.126C479.127 301.126 479.707 300.943 480.073 300.576C480.44 300.209 480.623 299.623 480.623 298.816C480.623 297.995 480.44 297.401 480.073 297.034C479.707 296.653 479.127 296.462 478.335 296.462C477.558 296.462 476.986 296.653 476.619 297.034C476.253 297.415 476.069 298.009 476.069 298.816C476.069 299.593 476.253 300.173 476.619 300.554C477.001 300.935 477.573 301.126 478.335 301.126ZM478.511 306.23C476.575 306.23 475.607 306.795 475.607 307.924C475.607 308.525 475.835 308.973 476.289 309.266C476.759 309.559 477.47 309.706 478.423 309.706C479.465 309.706 480.257 309.552 480.799 309.244C481.357 308.951 481.635 308.511 481.635 307.924C481.635 307.337 481.379 306.912 480.865 306.648C480.367 306.369 479.582 306.23 478.511 306.23ZM493.295 294.68C494.409 294.68 495.297 295.017 495.957 295.692C496.617 296.367 496.947 297.283 496.947 298.442V307H494.263V298.728C494.263 298.024 494.109 297.503 493.801 297.166C493.507 296.814 493.045 296.638 492.415 296.638C491.872 296.638 491.307 296.755 490.721 296.99C490.149 297.225 489.584 297.569 489.027 298.024V307H486.343V289.598H489.027V296.308C489.599 295.795 490.259 295.399 491.007 295.12C491.769 294.827 492.532 294.68 493.295 294.68ZM518.522 299.212C518.522 300.943 518.251 302.417 517.708 303.634C517.165 304.851 516.381 305.761 515.354 306.362C515.706 306.787 516.249 307.389 516.982 308.166C516.645 308.694 516.102 308.958 515.354 308.958C514.987 308.958 514.672 308.892 514.408 308.76C514.144 308.628 513.909 308.43 513.704 308.166C513.601 308.049 513.367 307.711 513 307.154C512.677 307.198 512.325 307.22 511.944 307.22C509.861 307.22 508.241 306.523 507.082 305.13C505.938 303.722 505.366 301.749 505.366 299.212C505.366 296.719 505.938 294.79 507.082 293.426C508.241 292.062 509.861 291.38 511.944 291.38C514.027 291.38 515.64 292.062 516.784 293.426C517.943 294.79 518.522 296.719 518.522 299.212ZM508.226 299.212C508.226 301.207 508.519 302.688 509.106 303.656C509.693 304.609 510.595 305.101 511.812 305.13L510.778 303.282H513.11C513.301 303.649 513.572 304.081 513.924 304.58C515.083 303.744 515.662 301.955 515.662 299.212C515.662 297.232 515.361 295.78 514.76 294.856C514.159 293.932 513.22 293.47 511.944 293.47C510.668 293.47 509.729 293.932 509.128 294.856C508.527 295.78 508.226 297.232 508.226 299.212ZM531.385 304.228C531.385 304.829 531.407 305.321 531.451 305.702C531.51 306.083 531.598 306.413 531.715 306.692C531.158 306.971 530.556 307.11 529.911 307.11C529.53 307.11 529.244 307 529.053 306.78C528.877 306.56 528.76 306.179 528.701 305.636C528.276 306.135 527.733 306.523 527.073 306.802C526.428 307.081 525.724 307.22 524.961 307.22C523.7 307.22 522.739 306.875 522.079 306.186C521.434 305.497 521.111 304.485 521.111 303.15V294.9H523.773V302.996C523.773 303.876 523.92 304.507 524.213 304.888C524.506 305.255 524.99 305.438 525.665 305.438C526.266 305.438 526.824 305.284 527.337 304.976C527.85 304.668 528.298 304.221 528.679 303.634V294.9H531.385V304.228ZM544.036 302.952C544.036 303.979 544.087 304.734 544.19 305.218C544.293 305.702 544.483 306.12 544.762 306.472C544.513 306.663 544.19 306.824 543.794 306.956C543.413 307.073 543.061 307.132 542.738 307.132C542.034 307.132 541.609 306.553 541.462 305.394C540.655 306.611 539.401 307.22 537.7 307.22C536.615 307.22 535.735 306.934 535.06 306.362C534.4 305.775 534.07 305.013 534.07 304.074C534.07 302.739 534.664 301.727 535.852 301.038C537.04 300.334 538.881 299.916 541.374 299.784V298.794C541.374 297.357 540.619 296.638 539.108 296.638C538.565 296.638 538.052 296.748 537.568 296.968C537.084 297.173 536.512 297.533 535.852 298.046C535.749 298.119 535.647 298.156 535.544 298.156C535.309 298.156 535.06 298.024 534.796 297.76C534.532 297.481 534.297 297.107 534.092 296.638C534.693 296.051 535.478 295.582 536.446 295.23C537.414 294.863 538.397 294.68 539.394 294.68C540.875 294.68 542.019 295.039 542.826 295.758C543.633 296.477 544.036 297.489 544.036 298.794V302.952ZM538.492 305.394C539.621 305.394 540.582 304.69 541.374 303.282V301.302C538.323 301.434 536.798 302.277 536.798 303.832C536.798 304.331 536.945 304.719 537.238 304.998C537.531 305.262 537.949 305.394 538.492 305.394ZM547.169 289.598H549.853V307H547.169V289.598ZM553.276 294.9H555.96V307H553.276V294.9ZM554.486 292.678C553.504 292.678 553.012 292.187 553.012 291.204V290.918C553.012 289.935 553.504 289.444 554.486 289.444H554.75C555.733 289.444 556.224 289.935 556.224 290.918V291.204C556.224 292.187 555.733 292.678 554.75 292.678H554.486ZM565.752 305.086C565.884 305.145 565.994 305.247 566.082 305.394C566.17 305.526 566.214 305.687 566.214 305.878C566.214 306.171 566.111 306.406 565.906 306.582C565.671 306.773 565.319 306.927 564.85 307.044C564.395 307.161 563.889 307.22 563.332 307.22C562.335 307.22 561.535 306.949 560.934 306.406C560.347 305.849 560.054 305.108 560.054 304.184V296.682H558.052V294.9H560.054V291.6H562.716V294.9H565.29V296.682H562.716V303.898C562.716 304.455 562.819 304.859 563.024 305.108C563.229 305.343 563.559 305.46 564.014 305.46C564.571 305.46 565.151 305.335 565.752 305.086ZM577.842 294.9L573.156 307.924C572.701 309.229 572.136 310.161 571.462 310.718C570.787 311.275 569.9 311.554 568.8 311.554C568.125 311.554 567.582 311.429 567.172 311.18C566.761 310.931 566.556 310.601 566.556 310.19C566.556 309.985 566.592 309.794 566.666 309.618C566.754 309.442 566.893 309.251 567.084 309.046C567.245 309.163 567.45 309.251 567.7 309.31C567.964 309.383 568.228 309.42 568.492 309.42C569.064 309.42 569.526 309.222 569.878 308.826C570.244 308.445 570.574 307.77 570.868 306.802L566.556 294.9H569.306L572.232 303.546L575.092 294.9H577.842ZM444.72 325.616H454.84V327.288H444.72V325.616ZM444.72 330.104H454.84V331.776H444.72V330.104ZM469.281 336.22C468.137 336.22 467.132 336.081 466.267 335.802C465.402 335.509 464.734 335.098 464.265 334.57C463.796 334.042 463.561 333.433 463.561 332.744C463.561 332.289 463.737 331.937 464.089 331.688C464.456 331.439 464.962 331.307 465.607 331.292C465.739 332.201 466.128 332.905 466.773 333.404C467.418 333.903 468.269 334.152 469.325 334.152C470.337 334.152 471.114 333.947 471.657 333.536C472.214 333.125 472.493 332.539 472.493 331.776C472.493 331.16 472.222 330.661 471.679 330.28C471.151 329.884 470.212 329.503 468.863 329.136C467.074 328.637 465.79 328.036 465.013 327.332C464.236 326.628 463.847 325.711 463.847 324.582C463.847 323.277 464.338 322.25 465.321 321.502C466.318 320.754 467.682 320.38 469.413 320.38C470.85 320.38 472.06 320.717 473.043 321.392C474.04 322.067 474.722 323.005 475.089 324.208C474.898 324.399 474.627 324.567 474.275 324.714C473.923 324.861 473.608 324.934 473.329 324.934C473.08 324.934 472.882 324.883 472.735 324.78C472.588 324.663 472.442 324.472 472.295 324.208C471.708 323.02 470.748 322.426 469.413 322.426C467.58 322.426 466.663 323.071 466.663 324.362C466.663 324.787 466.751 325.139 466.927 325.418C467.103 325.682 467.411 325.924 467.851 326.144C468.291 326.364 468.936 326.606 469.787 326.87C471.298 327.339 472.442 327.779 473.219 328.19C473.996 328.586 474.546 329.026 474.869 329.51C475.192 329.979 475.353 330.581 475.353 331.314C475.353 332.282 475.104 333.14 474.605 333.888C474.106 334.621 473.395 335.193 472.471 335.604C471.562 336.015 470.498 336.22 469.281 336.22ZM490.854 323.68C491.984 323.68 492.871 324.025 493.516 324.714C494.176 325.389 494.506 326.305 494.506 327.464V336H491.822V327.53C491.822 326.767 491.69 326.232 491.426 325.924C491.177 325.616 490.737 325.462 490.106 325.462C489.138 325.462 488.28 325.895 487.532 326.76C487.547 326.833 487.554 326.951 487.554 327.112V336H484.87V327.31C484.87 326.665 484.746 326.195 484.496 325.902C484.247 325.609 483.858 325.462 483.33 325.462C482.846 325.462 482.377 325.587 481.922 325.836C481.482 326.071 481.028 326.452 480.558 326.98V336H477.896V328.168C477.896 326.041 477.808 324.751 477.632 324.296C477.882 324.149 478.182 324.032 478.534 323.944C478.886 323.856 479.202 323.812 479.48 323.812C479.818 323.812 480.074 323.929 480.25 324.164C480.426 324.399 480.522 324.765 480.536 325.264C481.094 324.707 481.658 324.303 482.23 324.054C482.817 323.805 483.462 323.68 484.166 323.68C484.856 323.68 485.457 323.827 485.97 324.12C486.484 324.399 486.88 324.802 487.158 325.33C488.068 324.23 489.3 323.68 490.854 323.68ZM507.137 331.952C507.137 332.979 507.188 333.734 507.291 334.218C507.393 334.702 507.584 335.12 507.863 335.472C507.613 335.663 507.291 335.824 506.895 335.956C506.513 336.073 506.161 336.132 505.839 336.132C505.135 336.132 504.709 335.553 504.563 334.394C503.756 335.611 502.502 336.22 500.801 336.22C499.715 336.22 498.835 335.934 498.161 335.362C497.501 334.775 497.171 334.013 497.171 333.074C497.171 331.739 497.765 330.727 498.953 330.038C500.141 329.334 501.981 328.916 504.475 328.784V327.794C504.475 326.357 503.719 325.638 502.209 325.638C501.666 325.638 501.153 325.748 500.669 325.968C500.185 326.173 499.613 326.533 498.953 327.046C498.85 327.119 498.747 327.156 498.645 327.156C498.41 327.156 498.161 327.024 497.897 326.76C497.633 326.481 497.398 326.107 497.193 325.638C497.794 325.051 498.579 324.582 499.547 324.23C500.515 323.863 501.497 323.68 502.495 323.68C503.976 323.68 505.12 324.039 505.927 324.758C506.733 325.477 507.137 326.489 507.137 327.794V331.952ZM501.593 334.394C502.722 334.394 503.683 333.69 504.475 332.282V330.302C501.424 330.434 499.899 331.277 499.899 332.832C499.899 333.331 500.045 333.719 500.339 333.998C500.632 334.262 501.05 334.394 501.593 334.394ZM510.27 318.598H512.954V336H510.27V318.598ZM516.157 318.598H518.841V336H516.157V318.598ZM533.347 336.22C532.203 336.22 531.199 336.081 530.333 335.802C529.468 335.509 528.801 335.098 528.331 334.57C527.862 334.042 527.627 333.433 527.627 332.744C527.627 332.289 527.803 331.937 528.155 331.688C528.522 331.439 529.028 331.307 529.673 331.292C529.805 332.201 530.194 332.905 530.839 333.404C531.485 333.903 532.335 334.152 533.391 334.152C534.403 334.152 535.181 333.947 535.723 333.536C536.281 333.125 536.559 332.539 536.559 331.776C536.559 331.16 536.288 330.661 535.745 330.28C535.217 329.884 534.279 329.503 532.929 329.136C531.14 328.637 529.857 328.036 529.079 327.332C528.302 326.628 527.913 325.711 527.913 324.582C527.913 323.277 528.405 322.25 529.387 321.502C530.385 320.754 531.749 320.38 533.479 320.38C534.917 320.38 536.127 320.717 537.109 321.392C538.107 322.067 538.789 323.005 539.155 324.208C538.965 324.399 538.693 324.567 538.341 324.714C537.989 324.861 537.674 324.934 537.395 324.934C537.146 324.934 536.948 324.883 536.801 324.78C536.655 324.663 536.508 324.472 536.361 324.208C535.775 323.02 534.814 322.426 533.479 322.426C531.646 322.426 530.729 323.071 530.729 324.362C530.729 324.787 530.817 325.139 530.993 325.418C531.169 325.682 531.477 325.924 531.917 326.144C532.357 326.364 533.003 326.606 533.853 326.87C535.364 327.339 536.508 327.779 537.285 328.19C538.063 328.586 538.613 329.026 538.935 329.51C539.258 329.979 539.419 330.581 539.419 331.314C539.419 332.282 539.17 333.14 538.671 333.888C538.173 334.621 537.461 335.193 536.537 335.604C535.628 336.015 534.565 336.22 533.347 336.22ZM546.891 336.22C544.94 336.22 543.459 335.685 542.447 334.614C541.449 333.529 540.951 331.952 540.951 329.884C540.951 327.963 541.464 326.452 542.491 325.352C543.517 324.237 544.925 323.68 546.715 323.68C548.137 323.68 549.296 324.032 550.191 324.736C551.1 325.425 551.635 326.379 551.797 327.596C551.122 327.992 550.535 328.19 550.037 328.19C549.831 328.19 549.663 328.131 549.531 328.014C549.413 327.882 549.303 327.662 549.201 327.354C549.01 326.723 548.709 326.261 548.299 325.968C547.903 325.66 547.375 325.506 546.715 325.506C545.761 325.506 545.013 325.895 544.471 326.672C543.943 327.435 543.679 328.505 543.679 329.884C543.679 331.351 543.95 332.465 544.493 333.228C545.05 333.976 545.849 334.35 546.891 334.35C547.653 334.35 548.269 334.13 548.739 333.69C549.223 333.235 549.582 332.531 549.817 331.578C550.418 331.578 550.858 331.71 551.137 331.974C551.43 332.223 551.577 332.605 551.577 333.118C551.577 333.661 551.357 334.174 550.917 334.658C550.491 335.127 549.919 335.509 549.201 335.802C548.482 336.081 547.712 336.22 546.891 336.22ZM558.911 336.22C557.151 336.22 555.801 335.677 554.863 334.592C553.924 333.507 553.455 331.952 553.455 329.928C553.455 327.904 553.924 326.357 554.863 325.286C555.801 324.215 557.151 323.68 558.911 323.68C560.671 323.68 562.013 324.215 562.937 325.286C563.875 326.357 564.345 327.904 564.345 329.928C564.345 331.967 563.875 333.529 562.937 334.614C561.998 335.685 560.656 336.22 558.911 336.22ZM558.911 334.394C559.864 334.394 560.553 334.042 560.979 333.338C561.419 332.619 561.639 331.483 561.639 329.928C561.639 328.388 561.419 327.266 560.979 326.562C560.553 325.858 559.864 325.506 558.911 325.506C557.957 325.506 557.261 325.858 556.821 326.562C556.395 327.251 556.183 328.373 556.183 329.928C556.183 331.497 556.395 332.634 556.821 333.338C557.261 334.042 557.957 334.394 558.911 334.394ZM572.651 323.68C574.235 323.68 575.437 324.201 576.259 325.242C577.095 326.269 577.513 327.779 577.513 329.774C577.513 331.065 577.278 332.194 576.809 333.162C576.354 334.13 575.701 334.885 574.851 335.428C574 335.956 573.017 336.22 571.903 336.22C571.096 336.22 570.238 336.066 569.329 335.758V340.95H566.667V328.344C566.667 327.215 566.623 326.357 566.535 325.77C566.461 325.183 566.315 324.736 566.095 324.428C566.447 324.237 566.806 324.091 567.173 323.988C567.554 323.871 567.899 323.812 568.207 323.812C568.485 323.812 568.705 323.915 568.867 324.12C569.043 324.325 569.167 324.648 569.241 325.088C570.135 324.149 571.272 323.68 572.651 323.68ZM571.595 334.394C572.621 334.394 573.406 333.998 573.949 333.206C574.506 332.414 574.785 331.27 574.785 329.774C574.785 328.307 574.572 327.222 574.147 326.518C573.721 325.814 573.061 325.462 572.167 325.462C571.624 325.462 571.096 325.587 570.583 325.836C570.084 326.085 569.666 326.415 569.329 326.826V333.91C570.018 334.233 570.773 334.394 571.595 334.394ZM590.089 329.136C590.089 329.385 590.06 329.803 590.001 330.39H581.905C581.978 331.651 582.272 332.627 582.785 333.316C583.298 334.005 583.995 334.35 584.875 334.35C585.476 334.35 585.968 334.233 586.349 333.998C586.745 333.749 587.192 333.272 587.691 332.568C587.779 332.436 587.933 332.37 588.153 332.37C588.564 332.37 589.128 332.627 589.847 333.14C589.436 334.137 588.798 334.9 587.933 335.428C587.082 335.956 586.063 336.22 584.875 336.22C583.1 336.22 581.7 335.663 580.673 334.548C579.661 333.419 579.155 331.879 579.155 329.928C579.155 327.992 579.668 326.467 580.695 325.352C581.722 324.237 583.13 323.68 584.919 323.68C586.562 323.68 587.83 324.157 588.725 325.11C589.634 326.063 590.089 327.405 590.089 329.136ZM587.383 328.762C587.383 326.577 586.54 325.484 584.853 325.484C584.017 325.484 583.35 325.763 582.851 326.32C582.367 326.863 582.066 327.677 581.949 328.762H587.383Z" fill="black" fill-opacity="0.4"/>
<path d="M371.08 436.78C370.933 436.897 370.713 436.993 370.42 437.066C370.126 437.139 369.818 437.176 369.496 437.176C369.07 437.176 368.74 437.117 368.506 437C368.271 436.868 368.088 436.655 367.956 436.362L366.02 432.49C365.741 431.933 365.426 431.551 365.074 431.346C364.722 431.126 364.216 431.016 363.556 431.016H362.302V437H359.508V421.6H364.678C366.57 421.6 368.036 422.011 369.078 422.832C370.119 423.653 370.64 424.812 370.64 426.308C370.64 427.305 370.368 428.163 369.826 428.882C369.298 429.586 368.542 430.107 367.56 430.444C367.926 430.811 368.264 431.287 368.572 431.874L371.08 436.78ZM364.48 428.97C365.609 428.97 366.445 428.757 366.988 428.332C367.53 427.892 367.802 427.217 367.802 426.308C367.802 425.399 367.538 424.731 367.01 424.306C366.482 423.866 365.653 423.646 364.524 423.646H362.302V428.97H364.48ZM373.582 424.9H376.266V437H373.582V424.9ZM374.792 422.678C373.809 422.678 373.318 422.187 373.318 421.204V420.918C373.318 419.935 373.809 419.444 374.792 419.444H375.056C376.039 419.444 376.53 419.935 376.53 420.918V421.204C376.53 422.187 376.039 422.678 375.056 422.678H374.792ZM384.76 437.22C382.809 437.22 381.328 436.685 380.316 435.614C379.318 434.529 378.82 432.952 378.82 430.884C378.82 428.963 379.333 427.452 380.36 426.352C381.386 425.237 382.794 424.68 384.584 424.68C386.006 424.68 387.165 425.032 388.06 425.736C388.969 426.425 389.504 427.379 389.666 428.596C388.991 428.992 388.404 429.19 387.906 429.19C387.7 429.19 387.532 429.131 387.4 429.014C387.282 428.882 387.172 428.662 387.07 428.354C386.879 427.723 386.578 427.261 386.168 426.968C385.772 426.66 385.244 426.506 384.584 426.506C383.63 426.506 382.882 426.895 382.34 427.672C381.812 428.435 381.548 429.505 381.548 430.884C381.548 432.351 381.819 433.465 382.362 434.228C382.919 434.976 383.718 435.35 384.76 435.35C385.522 435.35 386.138 435.13 386.608 434.69C387.092 434.235 387.451 433.531 387.686 432.578C388.287 432.578 388.727 432.71 389.006 432.974C389.299 433.223 389.446 433.605 389.446 434.118C389.446 434.661 389.226 435.174 388.786 435.658C388.36 436.127 387.788 436.509 387.07 436.802C386.351 437.081 385.581 437.22 384.76 437.22ZM398.958 424.68C400.072 424.68 400.96 425.017 401.62 425.692C402.28 426.367 402.61 427.283 402.61 428.442V437H399.926V428.728C399.926 428.024 399.772 427.503 399.464 427.166C399.17 426.814 398.708 426.638 398.078 426.638C397.535 426.638 396.97 426.755 396.384 426.99C395.812 427.225 395.247 427.569 394.69 428.024V437H392.006V419.598H394.69V426.308C395.262 425.795 395.922 425.399 396.67 425.12C397.432 424.827 398.195 424.68 398.958 424.68ZM421.875 434.47C422.3 434.734 422.689 434.91 423.041 434.998C423.408 435.071 423.826 435.115 424.295 435.13V436.01C424.295 436.391 424.163 436.692 423.899 436.912C423.65 437.117 423.276 437.22 422.777 437.22C421.809 437.22 420.863 436.868 419.939 436.164C418.751 436.868 417.424 437.22 415.957 437.22C415.121 437.22 414.307 437.066 413.515 436.758C412.738 436.45 412.1 435.995 411.601 435.394C411.102 434.793 410.853 434.074 410.853 433.238C410.853 432.534 410.963 431.933 411.183 431.434C411.418 430.935 411.748 430.488 412.173 430.092C412.613 429.681 413.2 429.241 413.933 428.772C413.112 427.393 412.701 426.183 412.701 425.142C412.701 424.379 412.87 423.712 413.207 423.14C413.559 422.568 414.028 422.135 414.615 421.842C415.202 421.534 415.847 421.38 416.551 421.38C417.211 421.38 417.82 421.512 418.377 421.776C418.949 422.025 419.404 422.399 419.741 422.898C420.093 423.397 420.269 423.991 420.269 424.68C420.269 425.296 420.122 425.853 419.829 426.352C419.55 426.836 419.162 427.276 418.663 427.672C418.179 428.068 417.519 428.53 416.683 429.058C417.167 429.747 417.724 430.466 418.355 431.214C418.986 431.947 419.58 432.578 420.137 433.106C420.768 431.962 421.068 430.561 421.039 428.904C421.816 428.904 422.388 429.058 422.755 429.366C423.122 429.674 423.305 430.165 423.305 430.84C423.305 431.383 423.18 431.977 422.931 432.622C422.696 433.267 422.344 433.883 421.875 434.47ZM416.617 423.14C416.133 423.14 415.73 423.323 415.407 423.69C415.099 424.057 414.945 424.526 414.945 425.098C414.945 425.523 415.011 425.941 415.143 426.352C415.275 426.748 415.48 427.188 415.759 427.672C416.624 427.144 417.233 426.667 417.585 426.242C417.952 425.802 418.135 425.252 418.135 424.592C418.135 424.152 418.003 423.8 417.739 423.536C417.475 423.272 417.101 423.14 416.617 423.14ZM413.471 433.04C413.471 433.773 413.735 434.367 414.263 434.822C414.806 435.262 415.495 435.482 416.331 435.482C417.167 435.482 417.908 435.277 418.553 434.866C417.189 433.443 415.964 431.918 414.879 430.29C414.336 430.701 413.962 431.104 413.757 431.5C413.566 431.896 413.471 432.409 413.471 433.04ZM341.472 450.6V466H338.678V459.18H332.188V466H329.416V450.6H332.188V457.134H338.678V450.6H341.472ZM344.889 453.9H347.573V466H344.889V453.9ZM346.099 451.678C345.117 451.678 344.625 451.187 344.625 450.204V449.918C344.625 448.935 345.117 448.444 346.099 448.444H346.363C347.346 448.444 347.837 448.935 347.837 449.918V450.204C347.837 451.187 347.346 451.678 346.363 451.678H346.099ZM360.907 452.822C361.377 452.822 361.699 452.983 361.875 453.306C362.051 453.629 362.132 454.179 362.117 454.956C361.076 454.956 360.335 455.081 359.895 455.33C360.423 456.019 360.687 456.819 360.687 457.728C360.687 459.107 360.247 460.155 359.367 460.874C358.502 461.593 357.226 461.952 355.539 461.952C354.747 461.952 354.19 462.011 353.867 462.128C353.545 462.231 353.383 462.421 353.383 462.7C353.383 462.979 353.574 463.169 353.955 463.272C354.351 463.375 355.099 463.426 356.199 463.426C357.915 463.426 359.235 463.719 360.159 464.306C361.098 464.893 361.567 465.721 361.567 466.792C361.567 467.951 361.047 468.86 360.005 469.52C358.979 470.18 357.563 470.51 355.759 470.51C353.97 470.51 352.599 470.224 351.645 469.652C350.692 469.095 350.215 468.295 350.215 467.254C350.215 466.594 350.443 466.059 350.897 465.648C351.367 465.237 352.049 464.959 352.943 464.812V464.746C352.386 464.629 351.953 464.423 351.645 464.13C351.337 463.822 351.183 463.448 351.183 463.008C351.183 462.627 351.337 462.289 351.645 461.996C351.968 461.703 352.393 461.49 352.921 461.358C352.232 460.991 351.689 460.515 351.293 459.928C350.897 459.341 350.699 458.696 350.699 457.992C350.699 456.599 351.147 455.535 352.041 454.802C352.951 454.054 354.256 453.68 355.957 453.68C356.881 453.68 357.703 453.849 358.421 454.186C358.773 453.775 359.177 453.445 359.631 453.196C360.086 452.947 360.511 452.822 360.907 452.822ZM355.671 460.126C356.463 460.126 357.043 459.943 357.409 459.576C357.776 459.209 357.959 458.623 357.959 457.816C357.959 456.995 357.776 456.401 357.409 456.034C357.043 455.653 356.463 455.462 355.671 455.462C354.894 455.462 354.322 455.653 353.955 456.034C353.589 456.415 353.405 457.009 353.405 457.816C353.405 458.593 353.589 459.173 353.955 459.554C354.337 459.935 354.909 460.126 355.671 460.126ZM355.847 465.23C353.911 465.23 352.943 465.795 352.943 466.924C352.943 467.525 353.171 467.973 353.625 468.266C354.095 468.559 354.806 468.706 355.759 468.706C356.801 468.706 357.593 468.552 358.135 468.244C358.693 467.951 358.971 467.511 358.971 466.924C358.971 466.337 358.715 465.912 358.201 465.648C357.703 465.369 356.918 465.23 355.847 465.23ZM370.631 453.68C371.745 453.68 372.633 454.017 373.293 454.692C373.953 455.367 374.283 456.283 374.283 457.442V466H371.599V457.728C371.599 457.024 371.445 456.503 371.137 456.166C370.843 455.814 370.381 455.638 369.751 455.638C369.208 455.638 368.643 455.755 368.057 455.99C367.485 456.225 366.92 456.569 366.363 457.024V466H363.679V448.598H366.363V455.308C366.935 454.795 367.595 454.399 368.343 454.12C369.105 453.827 369.868 453.68 370.631 453.68ZM395.858 458.212C395.858 459.943 395.586 461.417 395.044 462.634C394.501 463.851 393.716 464.761 392.69 465.362C393.042 465.787 393.584 466.389 394.318 467.166C393.98 467.694 393.438 467.958 392.69 467.958C392.323 467.958 392.008 467.892 391.744 467.76C391.48 467.628 391.245 467.43 391.04 467.166C390.937 467.049 390.702 466.711 390.336 466.154C390.013 466.198 389.661 466.22 389.28 466.22C387.197 466.22 385.576 465.523 384.418 464.13C383.274 462.722 382.702 460.749 382.702 458.212C382.702 455.719 383.274 453.79 384.418 452.426C385.576 451.062 387.197 450.38 389.28 450.38C391.362 450.38 392.976 451.062 394.12 452.426C395.278 453.79 395.858 455.719 395.858 458.212ZM385.562 458.212C385.562 460.207 385.855 461.688 386.442 462.656C387.028 463.609 387.93 464.101 389.148 464.13L388.114 462.282H390.446C390.636 462.649 390.908 463.081 391.26 463.58C392.418 462.744 392.998 460.955 392.998 458.212C392.998 456.232 392.697 454.78 392.096 453.856C391.494 452.932 390.556 452.47 389.28 452.47C388.004 452.47 387.065 452.932 386.464 453.856C385.862 454.78 385.562 456.232 385.562 458.212ZM408.721 463.228C408.721 463.829 408.743 464.321 408.787 464.702C408.846 465.083 408.934 465.413 409.051 465.692C408.494 465.971 407.892 466.11 407.247 466.11C406.866 466.11 406.58 466 406.389 465.78C406.213 465.56 406.096 465.179 406.037 464.636C405.612 465.135 405.069 465.523 404.409 465.802C403.764 466.081 403.06 466.22 402.297 466.22C401.036 466.22 400.075 465.875 399.415 465.186C398.77 464.497 398.447 463.485 398.447 462.15V453.9H401.109V461.996C401.109 462.876 401.256 463.507 401.549 463.888C401.842 464.255 402.326 464.438 403.001 464.438C403.602 464.438 404.16 464.284 404.673 463.976C405.186 463.668 405.634 463.221 406.015 462.634V453.9H408.721V463.228ZM421.372 461.952C421.372 462.979 421.423 463.734 421.526 464.218C421.629 464.702 421.819 465.12 422.098 465.472C421.849 465.663 421.526 465.824 421.13 465.956C420.749 466.073 420.397 466.132 420.074 466.132C419.37 466.132 418.945 465.553 418.798 464.394C417.991 465.611 416.737 466.22 415.036 466.22C413.951 466.22 413.071 465.934 412.396 465.362C411.736 464.775 411.406 464.013 411.406 463.074C411.406 461.739 412 460.727 413.188 460.038C414.376 459.334 416.217 458.916 418.71 458.784V457.794C418.71 456.357 417.955 455.638 416.444 455.638C415.901 455.638 415.388 455.748 414.904 455.968C414.42 456.173 413.848 456.533 413.188 457.046C413.085 457.119 412.983 457.156 412.88 457.156C412.645 457.156 412.396 457.024 412.132 456.76C411.868 456.481 411.633 456.107 411.428 455.638C412.029 455.051 412.814 454.582 413.782 454.23C414.75 453.863 415.733 453.68 416.73 453.68C418.211 453.68 419.355 454.039 420.162 454.758C420.969 455.477 421.372 456.489 421.372 457.794V461.952ZM415.828 464.394C416.957 464.394 417.918 463.69 418.71 462.282V460.302C415.659 460.434 414.134 461.277 414.134 462.832C414.134 463.331 414.281 463.719 414.574 463.998C414.867 464.262 415.285 464.394 415.828 464.394ZM424.505 448.598H427.189V466H424.505V448.598ZM430.612 453.9H433.296V466H430.612V453.9ZM431.822 451.678C430.839 451.678 430.348 451.187 430.348 450.204V449.918C430.348 448.935 430.839 448.444 431.822 448.444H432.086C433.069 448.444 433.56 448.935 433.56 449.918V450.204C433.56 451.187 433.069 451.678 432.086 451.678H431.822ZM443.088 464.086C443.22 464.145 443.33 464.247 443.418 464.394C443.506 464.526 443.55 464.687 443.55 464.878C443.55 465.171 443.447 465.406 443.242 465.582C443.007 465.773 442.655 465.927 442.186 466.044C441.731 466.161 441.225 466.22 440.668 466.22C439.671 466.22 438.871 465.949 438.27 465.406C437.683 464.849 437.39 464.108 437.39 463.184V455.682H435.388V453.9H437.39V450.6H440.052V453.9H442.626V455.682H440.052V462.898C440.052 463.455 440.155 463.859 440.36 464.108C440.565 464.343 440.895 464.46 441.35 464.46C441.907 464.46 442.487 464.335 443.088 464.086ZM455.178 453.9L450.492 466.924C450.037 468.229 449.472 469.161 448.798 469.718C448.123 470.275 447.236 470.554 446.136 470.554C445.461 470.554 444.918 470.429 444.508 470.18C444.097 469.931 443.892 469.601 443.892 469.19C443.892 468.985 443.928 468.794 444.002 468.618C444.09 468.442 444.229 468.251 444.42 468.046C444.581 468.163 444.786 468.251 445.036 468.31C445.3 468.383 445.564 468.42 445.828 468.42C446.4 468.42 446.862 468.222 447.214 467.826C447.58 467.445 447.91 466.77 448.204 465.802L443.892 453.9H446.642L449.568 462.546L452.428 453.9H455.178ZM305.695 484.616H315.815V486.288H305.695V484.616ZM305.695 489.104H315.815V490.776H305.695V489.104ZM335.928 495.22C334.784 495.22 333.78 495.081 332.914 494.802C332.049 494.509 331.382 494.098 330.912 493.57C330.443 493.042 330.208 492.433 330.208 491.744C330.208 491.289 330.384 490.937 330.736 490.688C331.103 490.439 331.609 490.307 332.254 490.292C332.386 491.201 332.775 491.905 333.42 492.404C334.066 492.903 334.916 493.152 335.972 493.152C336.984 493.152 337.762 492.947 338.304 492.536C338.862 492.125 339.14 491.539 339.14 490.776C339.14 490.16 338.869 489.661 338.326 489.28C337.798 488.884 336.86 488.503 335.51 488.136C333.721 487.637 332.438 487.036 331.66 486.332C330.883 485.628 330.494 484.711 330.494 483.582C330.494 482.277 330.986 481.25 331.968 480.502C332.966 479.754 334.33 479.38 336.06 479.38C337.498 479.38 338.708 479.717 339.69 480.392C340.688 481.067 341.37 482.005 341.736 483.208C341.546 483.399 341.274 483.567 340.922 483.714C340.57 483.861 340.255 483.934 339.976 483.934C339.727 483.934 339.529 483.883 339.382 483.78C339.236 483.663 339.089 483.472 338.942 483.208C338.356 482.02 337.395 481.426 336.06 481.426C334.227 481.426 333.31 482.071 333.31 483.362C333.31 483.787 333.398 484.139 333.574 484.418C333.75 484.682 334.058 484.924 334.498 485.144C334.938 485.364 335.584 485.606 336.434 485.87C337.945 486.339 339.089 486.779 339.866 487.19C340.644 487.586 341.194 488.026 341.516 488.51C341.839 488.979 342 489.581 342 490.314C342 491.282 341.751 492.14 341.252 492.888C340.754 493.621 340.042 494.193 339.118 494.604C338.209 495.015 337.146 495.22 335.928 495.22ZM344.412 477.598H347.096V495H344.412V477.598ZM354.874 495.22C353.114 495.22 351.765 494.677 350.826 493.592C349.888 492.507 349.418 490.952 349.418 488.928C349.418 486.904 349.888 485.357 350.826 484.286C351.765 483.215 353.114 482.68 354.874 482.68C356.634 482.68 357.976 483.215 358.9 484.286C359.839 485.357 360.308 486.904 360.308 488.928C360.308 490.967 359.839 492.529 358.9 493.614C357.962 494.685 356.62 495.22 354.874 495.22ZM354.874 493.394C355.828 493.394 356.517 493.042 356.942 492.338C357.382 491.619 357.602 490.483 357.602 488.928C357.602 487.388 357.382 486.266 356.942 485.562C356.517 484.858 355.828 484.506 354.874 484.506C353.921 484.506 353.224 484.858 352.784 485.562C352.359 486.251 352.146 487.373 352.146 488.928C352.146 490.497 352.359 491.634 352.784 492.338C353.224 493.042 353.921 493.394 354.874 493.394ZM377.766 482.9C377.59 485.173 377.238 487.307 376.71 489.302C376.197 491.297 375.456 493.196 374.488 495H372.486C371.841 493.812 371.298 492.639 370.858 491.48C370.418 490.307 370.059 489.075 369.78 487.784C369.223 490.263 368.306 492.668 367.03 495H365.006C364.024 493.255 363.261 491.399 362.718 489.434C362.19 487.469 361.802 485.291 361.552 482.9H364.28C364.456 484.851 364.676 486.537 364.94 487.96C365.219 489.368 365.644 490.703 366.216 491.964C367.434 489.368 368.24 486.347 368.636 482.9H370.968C371.379 486.361 372.2 489.405 373.432 492.03C373.99 490.725 374.386 489.339 374.62 487.872C374.87 486.405 375.038 484.748 375.126 482.9H377.766ZM391.977 493.086C392.109 493.145 392.219 493.247 392.307 493.394C392.395 493.526 392.439 493.687 392.439 493.878C392.439 494.171 392.336 494.406 392.131 494.582C391.896 494.773 391.544 494.927 391.075 495.044C390.62 495.161 390.114 495.22 389.557 495.22C388.559 495.22 387.76 494.949 387.159 494.406C386.572 493.849 386.279 493.108 386.279 492.184V484.682H384.277V482.9H386.279V479.6H388.941V482.9H391.515V484.682H388.941V491.898C388.941 492.455 389.043 492.859 389.249 493.108C389.454 493.343 389.784 493.46 390.239 493.46C390.796 493.46 391.375 493.335 391.977 493.086ZM398.874 495.22C397.114 495.22 395.765 494.677 394.826 493.592C393.888 492.507 393.418 490.952 393.418 488.928C393.418 486.904 393.888 485.357 394.826 484.286C395.765 483.215 397.114 482.68 398.874 482.68C400.634 482.68 401.976 483.215 402.9 484.286C403.839 485.357 404.308 486.904 404.308 488.928C404.308 490.967 403.839 492.529 402.9 493.614C401.962 494.685 400.62 495.22 398.874 495.22ZM398.874 493.394C399.828 493.394 400.517 493.042 400.942 492.338C401.382 491.619 401.602 490.483 401.602 488.928C401.602 487.388 401.382 486.266 400.942 485.562C400.517 484.858 399.828 484.506 398.874 484.506C397.921 484.506 397.224 484.858 396.784 485.562C396.359 486.251 396.146 487.373 396.146 488.928C396.146 490.497 396.359 491.634 396.784 492.338C397.224 493.042 397.921 493.394 398.874 493.394ZM417.296 479.6C419.614 479.6 421.418 480.275 422.708 481.624C424.014 482.973 424.666 484.865 424.666 487.3C424.666 488.855 424.366 490.211 423.764 491.37C423.163 492.529 422.305 493.423 421.19 494.054C420.09 494.685 418.792 495 417.296 495H412.302V479.6H417.296ZM416.988 492.998C418.558 492.998 419.76 492.514 420.596 491.546C421.447 490.563 421.872 489.155 421.872 487.322C421.872 483.509 420.244 481.602 416.988 481.602H415.074V492.998H416.988ZM437.508 488.136C437.508 488.385 437.479 488.803 437.42 489.39H429.324C429.397 490.651 429.691 491.627 430.204 492.316C430.717 493.005 431.414 493.35 432.294 493.35C432.895 493.35 433.387 493.233 433.768 492.998C434.164 492.749 434.611 492.272 435.11 491.568C435.198 491.436 435.352 491.37 435.572 491.37C435.983 491.37 436.547 491.627 437.266 492.14C436.855 493.137 436.217 493.9 435.352 494.428C434.501 494.956 433.482 495.22 432.294 495.22C430.519 495.22 429.119 494.663 428.092 493.548C427.08 492.419 426.574 490.879 426.574 488.928C426.574 486.992 427.087 485.467 428.114 484.352C429.141 483.237 430.549 482.68 432.338 482.68C433.981 482.68 435.249 483.157 436.144 484.11C437.053 485.063 437.508 486.405 437.508 488.136ZM434.802 487.762C434.802 485.577 433.959 484.484 432.272 484.484C431.436 484.484 430.769 484.763 430.27 485.32C429.786 485.863 429.485 486.677 429.368 487.762H434.802ZM439.845 477.598H442.529V495H439.845V477.598ZM445.952 482.9H448.636V495H445.952V482.9ZM447.162 480.678C446.179 480.678 445.688 480.187 445.688 479.204V478.918C445.688 477.935 446.179 477.444 447.162 477.444H447.426C448.409 477.444 448.9 477.935 448.9 478.918V479.204C448.9 480.187 448.409 480.678 447.426 480.678H447.162ZM462.08 482.9C461.904 485.217 461.479 487.373 460.804 489.368C460.129 491.348 459.132 493.225 457.812 495H455.282C453.962 493.211 452.95 491.326 452.246 489.346C451.542 487.351 451.095 485.203 450.904 482.9H453.676C453.779 484.733 454.057 486.427 454.512 487.982C454.967 489.537 455.656 491.055 456.58 492.536C457.475 491.069 458.135 489.566 458.56 488.026C458.985 486.471 459.235 484.763 459.308 482.9H462.08ZM474.397 488.136C474.397 488.385 474.367 488.803 474.309 489.39H466.213C466.286 490.651 466.579 491.627 467.093 492.316C467.606 493.005 468.303 493.35 469.183 493.35C469.784 493.35 470.275 493.233 470.657 492.998C471.053 492.749 471.5 492.272 471.999 491.568C472.087 491.436 472.241 491.37 472.461 491.37C472.871 491.37 473.436 491.627 474.155 492.14C473.744 493.137 473.106 493.9 472.241 494.428C471.39 494.956 470.371 495.22 469.183 495.22C467.408 495.22 466.007 494.663 464.981 493.548C463.969 492.419 463.463 490.879 463.463 488.928C463.463 486.992 463.976 485.467 465.003 484.352C466.029 483.237 467.437 482.68 469.227 482.68C470.869 482.68 472.138 483.157 473.033 484.11C473.942 485.063 474.397 486.405 474.397 488.136ZM471.691 487.762C471.691 485.577 470.847 484.484 469.161 484.484C468.325 484.484 467.657 484.763 467.159 485.32C466.675 485.863 466.374 486.677 466.257 487.762H471.691ZM482.3 482.746C482.945 482.746 483.415 482.878 483.708 483.142C484.016 483.406 484.17 483.809 484.17 484.352C484.17 484.557 484.141 484.763 484.082 484.968C484.023 485.159 483.943 485.313 483.84 485.43C483.679 485.327 483.481 485.254 483.246 485.21C483.026 485.166 482.725 485.144 482.344 485.144C481.391 485.144 480.657 485.474 480.144 486.134C479.631 486.779 479.374 487.711 479.374 488.928V495H476.712V482.9H479.374V484.704C479.682 484.088 480.093 483.611 480.606 483.274C481.119 482.922 481.684 482.746 482.3 482.746Z" fill="black" fill-opacity="0.4"/>
<path d="M245.888 270.212C245.888 271.943 245.617 273.417 245.074 274.634C244.531 275.851 243.747 276.761 242.72 277.362C243.072 277.787 243.615 278.389 244.348 279.166C244.011 279.694 243.468 279.958 242.72 279.958C242.353 279.958 242.038 279.892 241.774 279.76C241.51 279.628 241.275 279.43 241.07 279.166C240.967 279.049 240.733 278.711 240.366 278.154C240.043 278.198 239.691 278.22 239.31 278.22C237.227 278.22 235.607 277.523 234.448 276.13C233.304 274.722 232.732 272.749 232.732 270.212C232.732 267.719 233.304 265.79 234.448 264.426C235.607 263.062 237.227 262.38 239.31 262.38C241.393 262.38 243.006 263.062 244.15 264.426C245.309 265.79 245.888 267.719 245.888 270.212ZM235.592 270.212C235.592 272.207 235.885 273.688 236.472 274.656C237.059 275.609 237.961 276.101 239.178 276.13L238.144 274.282H240.476C240.667 274.649 240.938 275.081 241.29 275.58C242.449 274.744 243.028 272.955 243.028 270.212C243.028 268.232 242.727 266.78 242.126 265.856C241.525 264.932 240.586 264.47 239.31 264.47C238.034 264.47 237.095 264.932 236.494 265.856C235.893 266.78 235.592 268.232 235.592 270.212ZM258.751 275.228C258.751 275.829 258.773 276.321 258.817 276.702C258.876 277.083 258.964 277.413 259.081 277.692C258.524 277.971 257.923 278.11 257.277 278.11C256.896 278.11 256.61 278 256.419 277.78C256.243 277.56 256.126 277.179 256.067 276.636C255.642 277.135 255.099 277.523 254.439 277.802C253.794 278.081 253.09 278.22 252.327 278.22C251.066 278.22 250.105 277.875 249.445 277.186C248.8 276.497 248.477 275.485 248.477 274.15V265.9H251.139V273.996C251.139 274.876 251.286 275.507 251.579 275.888C251.873 276.255 252.357 276.438 253.031 276.438C253.633 276.438 254.19 276.284 254.703 275.976C255.217 275.668 255.664 275.221 256.045 274.634V265.9H258.751V275.228ZM262.316 265.9H265V278H262.316V265.9ZM263.526 263.678C262.544 263.678 262.052 263.187 262.052 262.204V261.918C262.052 260.935 262.544 260.444 263.526 260.444H263.79C264.773 260.444 265.264 260.935 265.264 261.918V262.204C265.264 263.187 264.773 263.678 263.79 263.678H263.526ZM273.494 278.22C271.543 278.22 270.062 277.685 269.05 276.614C268.053 275.529 267.554 273.952 267.554 271.884C267.554 269.963 268.067 268.452 269.094 267.352C270.121 266.237 271.529 265.68 273.318 265.68C274.741 265.68 275.899 266.032 276.794 266.736C277.703 267.425 278.239 268.379 278.4 269.596C277.725 269.992 277.139 270.19 276.64 270.19C276.435 270.19 276.266 270.131 276.134 270.014C276.017 269.882 275.907 269.662 275.804 269.354C275.613 268.723 275.313 268.261 274.902 267.968C274.506 267.66 273.978 267.506 273.318 267.506C272.365 267.506 271.617 267.895 271.074 268.672C270.546 269.435 270.282 270.505 270.282 271.884C270.282 273.351 270.553 274.465 271.096 275.228C271.653 275.976 272.453 276.35 273.494 276.35C274.257 276.35 274.873 276.13 275.342 275.69C275.826 275.235 276.185 274.531 276.42 273.578C277.021 273.578 277.461 273.71 277.74 273.974C278.033 274.223 278.18 274.605 278.18 275.118C278.18 275.661 277.96 276.174 277.52 276.658C277.095 277.127 276.523 277.509 275.804 277.802C275.085 278.081 274.315 278.22 273.494 278.22ZM292.136 278C291.975 278 291.52 278.022 290.772 278.066C290.391 278.095 290.156 278.11 290.068 278.11C289.76 278.11 289.511 278.051 289.32 277.934C289.129 277.817 288.961 277.641 288.814 277.406L286.724 273.798C286.504 273.417 286.225 273.145 285.888 272.984C285.551 272.808 285.067 272.742 284.436 272.786L283.71 272.83V278H281.048V260.598H283.71V270.872L284.326 270.85C284.795 270.821 285.147 270.733 285.382 270.586C285.631 270.425 285.873 270.139 286.108 269.728L288.374 265.9H291.388L288.484 270.388C288.293 270.711 288.117 270.967 287.956 271.158C287.809 271.334 287.611 271.488 287.362 271.62C287.758 271.723 288.081 271.877 288.33 272.082C288.594 272.287 288.829 272.559 289.034 272.896L292.136 278ZM309.814 275.47C310.24 275.734 310.628 275.91 310.98 275.998C311.347 276.071 311.765 276.115 312.234 276.13V277.01C312.234 277.391 312.102 277.692 311.838 277.912C311.589 278.117 311.215 278.22 310.716 278.22C309.748 278.22 308.802 277.868 307.878 277.164C306.69 277.868 305.363 278.22 303.896 278.22C303.06 278.22 302.246 278.066 301.454 277.758C300.677 277.45 300.039 276.995 299.54 276.394C299.042 275.793 298.792 275.074 298.792 274.238C298.792 273.534 298.902 272.933 299.122 272.434C299.357 271.935 299.687 271.488 300.112 271.092C300.552 270.681 301.139 270.241 301.872 269.772C301.051 268.393 300.64 267.183 300.64 266.142C300.64 265.379 300.809 264.712 301.146 264.14C301.498 263.568 301.968 263.135 302.554 262.842C303.141 262.534 303.786 262.38 304.49 262.38C305.15 262.38 305.759 262.512 306.316 262.776C306.888 263.025 307.343 263.399 307.68 263.898C308.032 264.397 308.208 264.991 308.208 265.68C308.208 266.296 308.062 266.853 307.768 267.352C307.49 267.836 307.101 268.276 306.602 268.672C306.118 269.068 305.458 269.53 304.622 270.058C305.106 270.747 305.664 271.466 306.294 272.214C306.925 272.947 307.519 273.578 308.076 274.106C308.707 272.962 309.008 271.561 308.978 269.904C309.756 269.904 310.328 270.058 310.694 270.366C311.061 270.674 311.244 271.165 311.244 271.84C311.244 272.383 311.12 272.977 310.87 273.622C310.636 274.267 310.284 274.883 309.814 275.47ZM304.556 264.14C304.072 264.14 303.669 264.323 303.346 264.69C303.038 265.057 302.884 265.526 302.884 266.098C302.884 266.523 302.95 266.941 303.082 267.352C303.214 267.748 303.42 268.188 303.698 268.672C304.564 268.144 305.172 267.667 305.524 267.242C305.891 266.802 306.074 266.252 306.074 265.592C306.074 265.152 305.942 264.8 305.678 264.536C305.414 264.272 305.04 264.14 304.556 264.14ZM301.41 274.04C301.41 274.773 301.674 275.367 302.202 275.822C302.745 276.262 303.434 276.482 304.27 276.482C305.106 276.482 305.847 276.277 306.492 275.866C305.128 274.443 303.904 272.918 302.818 271.29C302.276 271.701 301.902 272.104 301.696 272.5C301.506 272.896 301.41 273.409 301.41 274.04ZM221.45 291.6C221.112 294.489 220.672 297.107 220.13 299.454C219.587 301.786 218.839 304.301 217.886 307H214.916C214.109 304.463 213.515 302.497 213.134 301.104C212.752 299.711 212.43 298.281 212.166 296.814C211.872 298.442 211.528 299.989 211.132 301.456C210.736 302.923 210.171 304.771 209.438 307H206.468C205.485 304.36 204.7 301.867 204.114 299.52C203.542 297.173 203.065 294.533 202.684 291.6H205.434C205.727 294.211 206.042 296.374 206.38 298.09C206.732 299.791 207.252 301.764 207.942 304.008C208.543 302.189 209.042 300.481 209.438 298.882C209.848 297.283 210.398 294.856 211.088 291.6H213.178C214.058 295.355 214.681 297.965 215.048 299.432C215.429 300.884 215.876 302.402 216.39 303.986C217.05 301.801 217.541 299.857 217.864 298.156C218.186 296.455 218.487 294.269 218.766 291.6H221.45ZM223.601 294.9H226.285V307H223.601V294.9ZM224.811 292.678C223.829 292.678 223.337 292.187 223.337 291.204V290.918C223.337 289.935 223.829 289.444 224.811 289.444H225.075C226.058 289.444 226.549 289.935 226.549 290.918V291.204C226.549 292.187 226.058 292.678 225.075 292.678H224.811ZM239.707 303.018C239.707 303.971 239.751 304.712 239.839 305.24C239.927 305.753 240.081 306.186 240.301 306.538C239.583 306.934 238.886 307.132 238.211 307.132C237.918 307.132 237.683 307.015 237.507 306.78C237.331 306.531 237.207 306.135 237.133 305.592C236.723 306.149 236.246 306.56 235.703 306.824C235.175 307.088 234.552 307.22 233.833 307.22C232.264 307.22 231.039 306.677 230.159 305.592C229.279 304.492 228.839 302.959 228.839 300.994C228.839 299.703 229.059 298.589 229.499 297.65C229.954 296.697 230.599 295.963 231.435 295.45C232.271 294.937 233.254 294.68 234.383 294.68C234.853 294.68 235.329 294.746 235.813 294.878C236.297 295.01 236.708 295.186 237.045 295.406V289.598H239.707V303.018ZM234.229 305.394C234.831 305.394 235.359 305.255 235.813 304.976C236.268 304.683 236.679 304.228 237.045 303.612V297.32C236.767 297.071 236.407 296.865 235.967 296.704C235.527 296.543 235.08 296.462 234.625 296.462C233.643 296.462 232.887 296.858 232.359 297.65C231.831 298.427 231.567 299.542 231.567 300.994C231.567 303.927 232.455 305.394 234.229 305.394ZM253.142 300.136C253.142 300.385 253.112 300.803 253.054 301.39H244.958C245.031 302.651 245.324 303.627 245.838 304.316C246.351 305.005 247.048 305.35 247.928 305.35C248.529 305.35 249.02 305.233 249.402 304.998C249.798 304.749 250.245 304.272 250.744 303.568C250.832 303.436 250.986 303.37 251.206 303.37C251.616 303.37 252.181 303.627 252.9 304.14C252.489 305.137 251.851 305.9 250.986 306.428C250.135 306.956 249.116 307.22 247.928 307.22C246.153 307.22 244.752 306.663 243.726 305.548C242.714 304.419 242.208 302.879 242.208 300.928C242.208 298.992 242.721 297.467 243.748 296.352C244.774 295.237 246.182 294.68 247.972 294.68C249.614 294.68 250.883 295.157 251.778 296.11C252.687 297.063 253.142 298.405 253.142 300.136ZM250.436 299.762C250.436 297.577 249.592 296.484 247.906 296.484C247.07 296.484 246.402 296.763 245.904 297.32C245.42 297.863 245.119 298.677 245.002 299.762H250.436ZM270.699 307C270.479 305.695 270.222 304.353 269.929 302.974H263.395C263.102 304.353 262.845 305.695 262.625 307H259.875C260.315 304.184 260.975 301.515 261.855 298.992C262.735 296.455 263.872 293.991 265.265 291.6H268.081C269.46 293.976 270.589 296.433 271.469 298.97C272.349 301.493 273.009 304.169 273.449 307H270.699ZM269.423 300.928C268.734 298.391 267.81 296.015 266.651 293.8C265.492 296.044 264.576 298.42 263.901 300.928H269.423ZM279.179 307.22C278.314 307.22 277.529 307.117 276.825 306.912C276.136 306.707 275.586 306.428 275.175 306.076C274.779 305.709 274.581 305.306 274.581 304.866C274.581 304.529 274.698 304.243 274.933 304.008C275.168 303.759 275.498 303.612 275.923 303.568C276.29 304.184 276.737 304.646 277.265 304.954C277.808 305.247 278.475 305.394 279.267 305.394C280.03 305.394 280.587 305.24 280.939 304.932C281.306 304.609 281.489 304.184 281.489 303.656C281.489 303.172 281.269 302.805 280.829 302.556C280.404 302.307 279.736 302.05 278.827 301.786C277.991 301.537 277.302 301.295 276.759 301.06C276.216 300.811 275.754 300.444 275.373 299.96C274.992 299.476 274.801 298.853 274.801 298.09C274.801 297.386 275.006 296.777 275.417 296.264C275.842 295.736 276.392 295.34 277.067 295.076C277.756 294.812 278.49 294.68 279.267 294.68C280.294 294.68 281.196 294.878 281.973 295.274C282.765 295.67 283.388 296.213 283.843 296.902C283.652 297.21 283.418 297.474 283.139 297.694C282.875 297.899 282.633 298.002 282.413 298.002C282.164 298.002 281.951 297.892 281.775 297.672C281.1 296.865 280.279 296.462 279.311 296.462C278.695 296.462 278.211 296.594 277.859 296.858C277.507 297.107 277.331 297.496 277.331 298.024C277.331 298.376 277.448 298.669 277.683 298.904C277.918 299.124 278.204 299.3 278.541 299.432C278.893 299.564 279.384 299.718 280.015 299.894C280.851 300.129 281.533 300.363 282.061 300.598C282.604 300.818 283.066 301.163 283.447 301.632C283.828 302.101 284.019 302.725 284.019 303.502C284.019 304.675 283.594 305.592 282.743 306.252C281.892 306.897 280.704 307.22 279.179 307.22ZM292.336 294.68C293.92 294.68 295.123 295.201 295.944 296.242C296.78 297.269 297.198 298.779 297.198 300.774C297.198 302.065 296.963 303.194 296.494 304.162C296.039 305.13 295.387 305.885 294.536 306.428C293.685 306.956 292.703 307.22 291.588 307.22C290.781 307.22 289.923 307.066 289.014 306.758V311.95H286.352V299.344C286.352 298.215 286.308 297.357 286.22 296.77C286.147 296.183 286 295.736 285.78 295.428C286.132 295.237 286.491 295.091 286.858 294.988C287.239 294.871 287.584 294.812 287.892 294.812C288.171 294.812 288.391 294.915 288.552 295.12C288.728 295.325 288.853 295.648 288.926 296.088C289.821 295.149 290.957 294.68 292.336 294.68ZM291.28 305.394C292.307 305.394 293.091 304.998 293.634 304.206C294.191 303.414 294.47 302.27 294.47 300.774C294.47 299.307 294.257 298.222 293.832 297.518C293.407 296.814 292.747 296.462 291.852 296.462C291.309 296.462 290.781 296.587 290.268 296.836C289.769 297.085 289.351 297.415 289.014 297.826V304.91C289.703 305.233 290.459 305.394 291.28 305.394ZM309.775 300.136C309.775 300.385 309.745 300.803 309.687 301.39H301.591C301.664 302.651 301.957 303.627 302.471 304.316C302.984 305.005 303.681 305.35 304.561 305.35C305.162 305.35 305.653 305.233 306.035 304.998C306.431 304.749 306.878 304.272 307.377 303.568C307.465 303.436 307.619 303.37 307.839 303.37C308.249 303.37 308.814 303.627 309.533 304.14C309.122 305.137 308.484 305.9 307.619 306.428C306.768 306.956 305.749 307.22 304.561 307.22C302.786 307.22 301.385 306.663 300.359 305.548C299.347 304.419 298.841 302.879 298.841 300.928C298.841 298.992 299.354 297.467 300.381 296.352C301.407 295.237 302.815 294.68 304.605 294.68C306.247 294.68 307.516 295.157 308.411 296.11C309.32 297.063 309.775 298.405 309.775 300.136ZM307.069 299.762C307.069 297.577 306.225 296.484 304.539 296.484C303.703 296.484 303.035 296.763 302.537 297.32C302.053 297.863 301.752 298.677 301.635 299.762H307.069ZM317.172 307.22C315.221 307.22 313.74 306.685 312.728 305.614C311.731 304.529 311.232 302.952 311.232 300.884C311.232 298.963 311.745 297.452 312.772 296.352C313.799 295.237 315.207 294.68 316.996 294.68C318.419 294.68 319.577 295.032 320.472 295.736C321.381 296.425 321.917 297.379 322.078 298.596C321.403 298.992 320.817 299.19 320.318 299.19C320.113 299.19 319.944 299.131 319.812 299.014C319.695 298.882 319.585 298.662 319.482 298.354C319.291 297.723 318.991 297.261 318.58 296.968C318.184 296.66 317.656 296.506 316.996 296.506C316.043 296.506 315.295 296.895 314.752 297.672C314.224 298.435 313.96 299.505 313.96 300.884C313.96 302.351 314.231 303.465 314.774 304.228C315.331 304.976 316.131 305.35 317.172 305.35C317.935 305.35 318.551 305.13 319.02 304.69C319.504 304.235 319.863 303.531 320.098 302.578C320.699 302.578 321.139 302.71 321.418 302.974C321.711 303.223 321.858 303.605 321.858 304.118C321.858 304.661 321.638 305.174 321.198 305.658C320.773 306.127 320.201 306.509 319.482 306.802C318.763 307.081 317.993 307.22 317.172 307.22ZM330.974 305.086C331.106 305.145 331.216 305.247 331.304 305.394C331.392 305.526 331.436 305.687 331.436 305.878C331.436 306.171 331.333 306.406 331.128 306.582C330.893 306.773 330.541 306.927 330.072 307.044C329.617 307.161 329.111 307.22 328.554 307.22C327.556 307.22 326.757 306.949 326.156 306.406C325.569 305.849 325.276 305.108 325.276 304.184V296.682H323.274V294.9H325.276V291.6H327.938V294.9H330.512V296.682H327.938V303.898C327.938 304.455 328.04 304.859 328.246 305.108C328.451 305.343 328.781 305.46 329.236 305.46C329.793 305.46 330.372 305.335 330.974 305.086ZM337.079 307.22C336.214 307.22 335.429 307.117 334.725 306.912C334.036 306.707 333.486 306.428 333.075 306.076C332.679 305.709 332.481 305.306 332.481 304.866C332.481 304.529 332.599 304.243 332.833 304.008C333.068 303.759 333.398 303.612 333.823 303.568C334.19 304.184 334.637 304.646 335.165 304.954C335.708 305.247 336.375 305.394 337.167 305.394C337.93 305.394 338.487 305.24 338.839 304.932C339.206 304.609 339.389 304.184 339.389 303.656C339.389 303.172 339.169 302.805 338.729 302.556C338.304 302.307 337.637 302.05 336.727 301.786C335.891 301.537 335.202 301.295 334.659 301.06C334.117 300.811 333.655 300.444 333.273 299.96C332.892 299.476 332.701 298.853 332.701 298.09C332.701 297.386 332.907 296.777 333.317 296.264C333.743 295.736 334.293 295.34 334.967 295.076C335.657 294.812 336.39 294.68 337.167 294.68C338.194 294.68 339.096 294.878 339.873 295.274C340.665 295.67 341.289 296.213 341.743 296.902C341.553 297.21 341.318 297.474 341.039 297.694C340.775 297.899 340.533 298.002 340.313 298.002C340.064 298.002 339.851 297.892 339.675 297.672C339.001 296.865 338.179 296.462 337.211 296.462C336.595 296.462 336.111 296.594 335.759 296.858C335.407 297.107 335.231 297.496 335.231 298.024C335.231 298.376 335.349 298.669 335.583 298.904C335.818 299.124 336.104 299.3 336.441 299.432C336.793 299.564 337.285 299.718 337.915 299.894C338.751 300.129 339.433 300.363 339.961 300.598C340.504 300.818 340.966 301.163 341.347 301.632C341.729 302.101 341.919 302.725 341.919 303.502C341.919 304.675 341.494 305.592 340.643 306.252C339.793 306.897 338.605 307.22 337.079 307.22ZM204.613 325.616H214.733V327.288H204.613V325.616ZM204.613 330.104H214.733V331.776H204.613V330.104ZM232.893 333.998V336H223.829V320.6H226.623V333.998H232.893ZM239.398 336.22C237.638 336.22 236.288 335.677 235.35 334.592C234.411 333.507 233.942 331.952 233.942 329.928C233.942 327.904 234.411 326.357 235.35 325.286C236.288 324.215 237.638 323.68 239.398 323.68C241.158 323.68 242.5 324.215 243.424 325.286C244.362 326.357 244.832 327.904 244.832 329.928C244.832 331.967 244.362 333.529 243.424 334.614C242.485 335.685 241.143 336.22 239.398 336.22ZM239.398 334.394C240.351 334.394 241.04 334.042 241.466 333.338C241.906 332.619 242.126 331.483 242.126 329.928C242.126 328.388 241.906 327.266 241.466 326.562C241.04 325.858 240.351 325.506 239.398 325.506C238.444 325.506 237.748 325.858 237.308 326.562C236.882 327.251 236.67 328.373 236.67 329.928C236.67 331.497 236.882 332.634 237.308 333.338C237.748 334.042 238.444 334.394 239.398 334.394ZM262.29 323.9C262.114 326.173 261.762 328.307 261.234 330.302C260.721 332.297 259.98 334.196 259.012 336H257.01C256.365 334.812 255.822 333.639 255.382 332.48C254.942 331.307 254.583 330.075 254.304 328.784C253.747 331.263 252.83 333.668 251.554 336H249.53C248.547 334.255 247.785 332.399 247.242 330.434C246.714 328.469 246.325 326.291 246.076 323.9H248.804C248.98 325.851 249.2 327.537 249.464 328.96C249.743 330.368 250.168 331.703 250.74 332.964C251.957 330.368 252.764 327.347 253.16 323.9H255.492C255.903 327.361 256.724 330.405 257.956 333.03C258.513 331.725 258.909 330.339 259.144 328.872C259.393 327.405 259.562 325.748 259.65 323.9H262.29ZM282.594 328.212C282.594 329.943 282.323 331.417 281.78 332.634C281.237 333.851 280.453 334.761 279.426 335.362C279.778 335.787 280.321 336.389 281.054 337.166C280.717 337.694 280.174 337.958 279.426 337.958C279.059 337.958 278.744 337.892 278.48 337.76C278.216 337.628 277.981 337.43 277.776 337.166C277.673 337.049 277.439 336.711 277.072 336.154C276.749 336.198 276.397 336.22 276.016 336.22C273.933 336.22 272.313 335.523 271.154 334.13C270.01 332.722 269.438 330.749 269.438 328.212C269.438 325.719 270.01 323.79 271.154 322.426C272.313 321.062 273.933 320.38 276.016 320.38C278.099 320.38 279.712 321.062 280.856 322.426C282.015 323.79 282.594 325.719 282.594 328.212ZM272.298 328.212C272.298 330.207 272.591 331.688 273.178 332.656C273.765 333.609 274.667 334.101 275.884 334.13L274.85 332.282H277.182C277.373 332.649 277.644 333.081 277.996 333.58C279.155 332.744 279.734 330.955 279.734 328.212C279.734 326.232 279.433 324.78 278.832 323.856C278.231 322.932 277.292 322.47 276.016 322.47C274.74 322.47 273.801 322.932 273.2 323.856C272.599 324.78 272.298 326.232 272.298 328.212ZM295.457 333.228C295.457 333.829 295.479 334.321 295.523 334.702C295.582 335.083 295.67 335.413 295.787 335.692C295.23 335.971 294.629 336.11 293.983 336.11C293.602 336.11 293.316 336 293.125 335.78C292.949 335.56 292.832 335.179 292.773 334.636C292.348 335.135 291.805 335.523 291.145 335.802C290.5 336.081 289.796 336.22 289.033 336.22C287.772 336.22 286.811 335.875 286.151 335.186C285.506 334.497 285.183 333.485 285.183 332.15V323.9H287.845V331.996C287.845 332.876 287.992 333.507 288.285 333.888C288.579 334.255 289.063 334.438 289.737 334.438C290.339 334.438 290.896 334.284 291.409 333.976C291.923 333.668 292.37 333.221 292.751 332.634V323.9H295.457V333.228ZM308.108 331.952C308.108 332.979 308.16 333.734 308.262 334.218C308.365 334.702 308.556 335.12 308.834 335.472C308.585 335.663 308.262 335.824 307.866 335.956C307.485 336.073 307.133 336.132 306.81 336.132C306.106 336.132 305.681 335.553 305.534 334.394C304.728 335.611 303.474 336.22 301.772 336.22C300.687 336.22 299.807 335.934 299.132 335.362C298.472 334.775 298.142 334.013 298.142 333.074C298.142 331.739 298.736 330.727 299.924 330.038C301.112 329.334 302.953 328.916 305.446 328.784V327.794C305.446 326.357 304.691 325.638 303.18 325.638C302.638 325.638 302.124 325.748 301.64 325.968C301.156 326.173 300.584 326.533 299.924 327.046C299.822 327.119 299.719 327.156 299.616 327.156C299.382 327.156 299.132 327.024 298.868 326.76C298.604 326.481 298.37 326.107 298.164 325.638C298.766 325.051 299.55 324.582 300.518 324.23C301.486 323.863 302.469 323.68 303.466 323.68C304.948 323.68 306.092 324.039 306.898 324.758C307.705 325.477 308.108 326.489 308.108 327.794V331.952ZM302.564 334.394C303.694 334.394 304.654 333.69 305.446 332.282V330.302C302.396 330.434 300.87 331.277 300.87 332.832C300.87 333.331 301.017 333.719 301.31 333.998C301.604 334.262 302.022 334.394 302.564 334.394ZM311.242 318.598H313.926V336H311.242V318.598ZM317.348 323.9H320.032V336H317.348V323.9ZM318.558 321.678C317.576 321.678 317.084 321.187 317.084 320.204V319.918C317.084 318.935 317.576 318.444 318.558 318.444H318.822C319.805 318.444 320.296 318.935 320.296 319.918V320.204C320.296 321.187 319.805 321.678 318.822 321.678H318.558ZM329.824 334.086C329.956 334.145 330.066 334.247 330.154 334.394C330.242 334.526 330.286 334.687 330.286 334.878C330.286 335.171 330.184 335.406 329.978 335.582C329.744 335.773 329.392 335.927 328.922 336.044C328.468 336.161 327.962 336.22 327.404 336.22C326.407 336.22 325.608 335.949 325.006 335.406C324.42 334.849 324.126 334.108 324.126 333.184V325.682H322.124V323.9H324.126V320.6H326.788V323.9H329.362V325.682H326.788V332.898C326.788 333.455 326.891 333.859 327.096 334.108C327.302 334.343 327.632 334.46 328.086 334.46C328.644 334.46 329.223 334.335 329.824 334.086ZM341.914 323.9L337.228 336.924C336.773 338.229 336.209 339.161 335.534 339.718C334.859 340.275 333.972 340.554 332.872 340.554C332.197 340.554 331.655 340.429 331.244 340.18C330.833 339.931 330.628 339.601 330.628 339.19C330.628 338.985 330.665 338.794 330.738 338.618C330.826 338.442 330.965 338.251 331.156 338.046C331.317 338.163 331.523 338.251 331.772 338.31C332.036 338.383 332.3 338.42 332.564 338.42C333.136 338.42 333.598 338.222 333.95 337.826C334.317 337.445 334.647 336.77 334.94 335.802L330.628 323.9H333.378L336.304 332.546L339.164 323.9H341.914Z" fill="black" fill-opacity="0.4"/>
<path d="M548.774 443.836C548.774 446.937 548.291 449.555 547.325 451.69C546.359 453.825 544.961 455.401 543.131 456.418C544.097 457.587 544.961 458.591 545.723 459.43C545.139 460.192 544.313 460.573 543.245 460.573C542.33 460.573 541.568 460.167 540.958 459.353C540.475 458.642 540.068 458.032 539.738 457.523C538.975 457.65 538.238 457.714 537.526 457.714C533.917 457.714 531.134 456.519 529.176 454.13C527.245 451.715 526.279 448.284 526.279 443.836C526.279 439.489 527.245 436.147 529.176 433.808C531.134 431.444 533.917 430.263 537.526 430.263C541.135 430.263 543.906 431.444 545.838 433.808C547.795 436.147 548.774 439.489 548.774 443.836ZM538.022 454.702C537.742 454.168 537.475 453.711 537.221 453.329C536.992 452.923 536.802 452.579 536.649 452.3L536.039 451.27H539.471C539.954 452.109 540.513 452.961 541.148 453.825C543.639 452.325 544.885 448.996 544.885 443.836C544.885 440.277 544.275 437.634 543.055 435.905C541.86 434.151 540.017 433.275 537.526 433.275C535.035 433.275 533.18 434.151 531.96 435.905C530.765 437.634 530.168 440.277 530.168 443.836C530.168 451.08 532.62 454.702 537.526 454.702H538.022ZM570.685 452.757C570.685 454.41 570.875 455.808 571.257 456.951C570.545 457.333 569.757 457.523 568.893 457.523C568.283 457.523 567.838 457.32 567.558 456.913C567.304 456.507 567.152 455.757 567.101 454.664C566.364 455.604 565.385 456.354 564.165 456.913C562.97 457.447 561.661 457.714 560.238 457.714C558.052 457.714 556.4 457.129 555.281 455.96C554.188 454.765 553.642 452.999 553.642 450.66V436.363H557.264V450.394C557.264 452.071 557.556 453.291 558.141 454.054C558.751 454.791 559.73 455.159 561.077 455.159C562.271 455.159 563.39 454.854 564.432 454.244C565.474 453.609 566.351 452.719 567.063 451.575V436.363H570.685V452.757ZM592.539 451.232C592.539 452.707 592.627 453.825 592.805 454.588C593.009 455.35 593.352 456.011 593.835 456.57C593.479 456.85 593.047 457.091 592.539 457.295C592.03 457.472 591.56 457.561 591.128 457.561C589.959 457.561 589.26 456.519 589.031 454.435C588.268 455.477 587.29 456.291 586.095 456.875C584.926 457.434 583.604 457.714 582.13 457.714C580.224 457.714 578.686 457.218 577.517 456.227C576.373 455.236 575.801 453.914 575.801 452.262C575.801 447.585 580.173 445.03 588.916 444.598V443.111C588.916 441.637 588.548 440.544 587.811 439.832C587.074 439.121 585.93 438.765 584.379 438.765C583.363 438.765 582.409 438.968 581.52 439.375C580.63 439.782 579.613 440.493 578.47 441.51C578.292 441.637 578.127 441.701 577.974 441.701C577.644 441.701 577.288 441.535 576.906 441.205C576.525 440.849 576.169 440.366 575.839 439.756C576.906 438.561 578.228 437.634 579.804 436.973C581.38 436.312 583.019 435.982 584.722 435.982C587.163 435.982 589.069 436.617 590.442 437.888C591.84 439.133 592.539 440.875 592.539 443.111V451.232ZM582.931 455.083C584.1 455.083 585.193 454.74 586.209 454.054C587.226 453.342 588.129 452.338 588.916 451.042V446.962C582.613 447.242 579.461 448.932 579.461 452.033C579.461 453.024 579.753 453.787 580.338 454.321C580.948 454.829 581.812 455.083 582.931 455.083ZM598.698 427.174H602.282V457.333H598.698V427.174ZM609.281 436.363H612.865V457.333H609.281V436.363ZM610.882 432.512C609.459 432.512 608.747 431.8 608.747 430.377V429.958C608.747 428.534 609.459 427.822 610.882 427.822H611.264C612.687 427.822 613.399 428.534 613.399 429.958V430.377C613.399 431.8 612.687 432.512 611.264 432.512H610.882ZM629.987 454.397C630.191 454.499 630.356 454.676 630.483 454.931C630.61 455.159 630.673 455.426 630.673 455.731C630.673 456.24 630.483 456.608 630.102 456.837C629.72 457.117 629.187 457.333 628.5 457.485C627.839 457.638 627.115 457.714 626.327 457.714C624.624 457.714 623.264 457.256 622.247 456.341C621.231 455.401 620.722 454.155 620.722 452.605V438.917H617.024V436.363H620.722V430.644H624.344V436.363H629.339V438.917H624.344V452.109C624.344 453.126 624.548 453.876 624.954 454.359C625.361 454.816 625.984 455.045 626.823 455.045C627.839 455.045 628.894 454.829 629.987 454.397ZM650.11 436.363L641.989 458.934C641.201 461.094 640.248 462.645 639.13 463.585C638.037 464.526 636.601 464.996 634.821 464.996C633.754 464.996 632.902 464.806 632.267 464.424C631.631 464.068 631.314 463.598 631.314 463.014C631.314 462.429 631.568 461.895 632.076 461.412C632.356 461.616 632.737 461.768 633.22 461.87C633.703 461.997 634.186 462.06 634.669 462.06C635.685 462.06 636.524 461.654 637.185 460.84C637.871 460.052 638.481 458.769 639.015 456.989L631.542 436.363H635.317L640.845 452.338L646.336 436.363H650.11Z" fill="black" fill-opacity="0.75"/>
<path d="M155.391 457.381C153.536 457.381 151.858 457.127 150.358 456.619C148.884 456.085 147.728 455.361 146.889 454.445C146.05 453.505 145.631 452.45 145.631 451.281C145.631 450.646 145.872 450.137 146.355 449.756C146.864 449.375 147.55 449.171 148.414 449.146C148.744 450.849 149.507 452.158 150.702 453.073C151.922 453.963 153.51 454.407 155.468 454.407C157.425 454.407 158.962 453.988 160.081 453.149C161.225 452.285 161.797 451.128 161.797 449.68C161.797 448.434 161.288 447.443 160.271 446.706C159.255 445.943 157.476 445.219 154.934 444.532C152.799 443.948 151.108 443.325 149.863 442.664C148.617 441.978 147.702 441.19 147.118 440.3C146.559 439.385 146.279 438.292 146.279 437.021C146.279 434.836 147.105 433.107 148.757 431.836C150.409 430.565 152.672 429.93 155.544 429.93C157.984 429.93 160.03 430.502 161.682 431.646C163.36 432.789 164.491 434.403 165.075 436.488C164.821 436.742 164.478 436.958 164.046 437.136C163.614 437.288 163.195 437.365 162.788 437.365C162.407 437.365 162.076 437.276 161.797 437.098C161.542 436.92 161.326 436.628 161.148 436.221C160.615 435.153 159.852 434.327 158.861 433.743C157.895 433.158 156.789 432.866 155.544 432.866C153.739 432.866 152.379 433.196 151.464 433.857C150.549 434.518 150.092 435.509 150.092 436.831C150.092 437.568 150.257 438.191 150.587 438.699C150.943 439.182 151.528 439.64 152.341 440.072C153.18 440.478 154.375 440.91 155.925 441.368C158.594 442.156 160.615 442.893 161.987 443.579C163.36 444.266 164.313 445.041 164.847 445.905C165.406 446.744 165.686 447.824 165.686 449.146C165.686 450.798 165.253 452.247 164.389 453.492C163.55 454.738 162.356 455.704 160.805 456.39C159.255 457.051 157.45 457.381 155.391 457.381ZM178.862 457.381C175.66 457.381 173.194 456.441 171.466 454.56C169.737 452.654 168.873 449.934 168.873 446.401C168.873 444.215 169.267 442.308 170.055 440.682C170.843 439.055 171.974 437.809 173.448 436.945C174.922 436.081 176.664 435.649 178.672 435.649C181.061 435.649 183.018 436.259 184.543 437.479C186.094 438.674 187.009 440.288 187.288 442.321C186.882 442.55 186.449 442.741 185.992 442.893C185.534 443.02 185.128 443.084 184.772 443.084C184.467 443.084 184.225 442.995 184.048 442.817C183.895 442.639 183.755 442.308 183.628 441.825C183.298 440.656 182.713 439.779 181.874 439.195C181.035 438.585 179.968 438.28 178.672 438.28C176.791 438.28 175.291 439.017 174.173 440.491C173.08 441.94 172.533 443.91 172.533 446.401C172.533 449.019 173.092 451.052 174.211 452.501C175.329 453.95 176.88 454.674 178.862 454.674C181.862 454.674 183.857 453.124 184.848 450.023C185.534 450.023 186.056 450.213 186.411 450.595C186.793 450.951 186.983 451.459 186.983 452.12C186.983 453.035 186.602 453.899 185.839 454.712C185.102 455.526 184.111 456.174 182.866 456.657C181.62 457.14 180.286 457.381 178.862 457.381ZM199.358 457.381C196.359 457.381 194.084 456.454 192.533 454.598C190.983 452.742 190.208 450.035 190.208 446.477C190.208 442.918 190.983 440.224 192.533 438.394C194.084 436.564 196.359 435.649 199.358 435.649C202.357 435.649 204.632 436.564 206.183 438.394C207.759 440.224 208.547 442.918 208.547 446.477C208.547 450.035 207.759 452.742 206.183 454.598C204.632 456.454 202.357 457.381 199.358 457.381ZM199.358 454.751C201.264 454.751 202.65 454.09 203.514 452.768C204.404 451.446 204.848 449.349 204.848 446.477C204.848 443.63 204.404 441.559 203.514 440.262C202.65 438.941 201.264 438.28 199.358 438.28C197.452 438.28 196.054 438.941 195.164 440.262C194.3 441.559 193.868 443.63 193.868 446.477C193.868 449.349 194.313 451.446 195.202 452.768C196.092 454.09 197.477 454.751 199.358 454.751ZM222.756 435.649C225.552 435.649 227.687 436.564 229.161 438.394C230.636 440.224 231.373 442.88 231.373 446.363C231.373 448.574 230.979 450.518 230.191 452.196C229.403 453.848 228.272 455.132 226.798 456.047C225.349 456.936 223.646 457.381 221.689 457.381C219.935 457.381 218.27 457.076 216.694 456.466V465.502H213.072V443.465C213.072 439.779 212.83 437.517 212.348 436.678C212.83 436.424 213.326 436.234 213.834 436.106C214.343 435.954 214.788 435.878 215.169 435.878C216.008 435.878 216.503 436.628 216.656 438.127C218.359 436.475 220.392 435.649 222.756 435.649ZM221.422 454.751C223.404 454.751 224.929 454.026 225.997 452.577C227.09 451.128 227.636 449.057 227.636 446.363C227.636 443.643 227.192 441.622 226.302 440.3C225.438 438.953 224.116 438.28 222.337 438.28C221.295 438.28 220.278 438.521 219.287 439.004C218.295 439.487 217.431 440.148 216.694 440.987V453.759C217.355 454.064 218.092 454.306 218.905 454.484C219.744 454.662 220.583 454.751 221.422 454.751ZM252.94 445.066C252.94 445.575 252.901 446.235 252.825 447.049H238.184C238.286 449.464 238.845 451.345 239.862 452.692C240.879 454.013 242.277 454.674 244.056 454.674C245.251 454.674 246.242 454.433 247.03 453.95C247.843 453.467 248.631 452.628 249.394 451.433C249.597 451.154 249.877 451.014 250.233 451.014C250.817 451.014 251.58 451.357 252.52 452.044C251.859 453.721 250.792 455.03 249.318 455.971C247.843 456.911 246.089 457.381 244.056 457.381C242.099 457.381 240.396 456.949 238.947 456.085C237.524 455.195 236.431 453.937 235.668 452.31C234.906 450.658 234.524 448.714 234.524 446.477C234.524 443.096 235.376 440.453 237.079 438.547C238.807 436.615 241.184 435.649 244.209 435.649C246.979 435.649 249.127 436.475 250.652 438.127C252.177 439.779 252.94 442.092 252.94 445.066ZM249.241 444.609C249.241 440.415 247.526 438.318 244.094 438.318C242.391 438.318 241.044 438.852 240.053 439.919C239.061 440.987 238.464 442.55 238.261 444.609H249.241Z" fill="black" fill-opacity="0.75"/>
</g>
</svg>
