<svg width="88" height="31" viewBox="0 0 176 62" fill="none" xmlns="http://www.w3.org/2000/svg">
  <style>
    @media (prefers-reduced-motion) {
      .path1 {
        animation: none !important;
        stroke-dasharray: unset !important;
      }
    }

    @keyframes grow {
      0% {
        opacity: 0
      }

      10% {
        opacity: 1;
      }
      70%,
      to {
        stroke-dasharray: 1200px 0
      }
    }

    .path1 {
      stroke-dashoffset: 1px;
      stroke-dasharray: 0px 1200px;
      animation: grow 8s ease-in-out forwards infinite;
      transform-origin: center;
      stroke: #fdfdfd;
      animation-delay: 0s;
    }

    rect {
      fill: #303030;
    }

    @media (prefers-color-scheme:dark) {
      .path1 {
        stroke: #303030;
      }

      rect {
        fill: #fdfdfd;
      }
    }
  </style>
  <rect width="176" height="62" rx="3" fill="#F5F5F5" />
  <mask id="mask0_647_3" style="mask-type:alpha" maskUnits="userSpaceOnUse" x="74" y="7" width="27" height="49">
    <path
      d="M100.885 8.87012C98.4584 4.54056 94.346 13.5673 93.4824 15.4462C91.6729 19.5307 90.7409 23.3288 89.7951 27.6584C88.7258 26.5147 87.0648 24.0462 86.2423 22.7391C85.6957 21.646 84.6999 22.1022 85.2902 23.2857C84.7145 22.3054 84.6025 20.8261 82.6667 19.6532C77.6906 19.2039 73.5184 27.7423 74.2175 32.031C76.1321 38.1551 82.4162 32.8509 83.9827 30.1095C83.8182 31.6616 83.8182 33.8264 85.3809 34.5616C87.0622 35.0372 87.8072 33.9081 88.8765 32.8461C88.2596 39.2588 87.4782 45.9165 89.6167 52.2066C90.6037 55.801 94.0993 56.6996 94.4694 52.2883C94.9629 46.8151 93.6058 41.4644 91.9608 36.3179C91.5084 34.8475 90.8882 33.6708 90.4448 32.1926C90.4448 30.118 90.9749 31.5922 91.7552 32.4377C92.6599 33.4179 95.7031 36.3179 96.9006 36.4037C96.0807 35.3105 95.8265 34.97 95.7031 34.8475C94.3871 33.2137 92.8244 31.7024 91.4262 30.1095C94.2638 26.025 97.0191 21.5729 98.9108 16.8757C99.7333 14.4659 101.461 11.4025 100.885 8.87012ZM84.2705 26.2292C83.3658 28.7208 82.2966 30.6405 80.1992 32.356C74.8461 36.7344 74.2955 29.9764 76.2102 26.7602C78.6776 21.6137 83.9004 17.0391 84.2705 26.2292ZM89.2485 30.6646C88.5905 31.604 87.6259 33.0299 86.5156 33.3975C85.6108 33.6425 85.3398 33.0095 85.1753 32.1926C84.6818 29.4968 85.5454 26.8419 85.9155 24.2278C86.8202 25.9433 87.9471 27.3093 88.9752 29.0248C89.1808 29.4741 89.5363 30.1744 89.2485 30.6646ZM90.6859 34.5616C92.4543 39.9123 93.6469 45.508 93.1534 51.1038C92.6599 56.0052 91.0972 52.4517 90.4803 49.9601C89.2055 44.4869 89.5218 38.59 90.1924 33.2954C90.3569 33.7038 90.5626 34.2757 90.6859 34.5616ZM99.6099 9.97293C98.7463 15.7729 94.4694 23.9419 90.8504 28.5165C91.5907 24.6771 92.6599 20.9602 94.1404 17.325C94.2637 16.5898 99.6922 5.80675 99.6099 9.97293Z"
      fill="white" />
  </mask>
  <g mask="url(#mask0_647_3)">
    <path class="path1"
      d="M84.507 25.3653C84.3293 19.7329 81.3231 18.6397 77.497 23.2857C69.8427 35.8111 79.6833 37.2235 83.7827 29.0248C84.8518 27.1118 85.4225 24.1056 85.4225 24.1056C85.083 26.9877 84.507 29.0139 84.507 31.2111C84.507 34.8341 86.7889 35.5291 90.3417 30.3366C93.6212 26.2372 97.9938 18.913 99.9069 12.354C101.262 7.7081 99.087 6.34164 95.5342 12.9006C90.615 21.0994 88.2972 36.1304 89.1392 46.5154C89.9612 56.6528 94.9876 57.1737 93.8945 47.3353C93.0791 39.9965 88.9752 27.1118 85.4225 21.9192C86.7889 24.9254 91.7081 32.3043 96.3541 35.8571"
      stroke="black" stroke-width="1.36645" stroke-linecap="round" />
  </g>
</svg>
