<svg xmlns="http://www.w3.org/2000/svg" viewBox="0 0 97.98 97.98"><style>.a{fill:#333}@media (prefers-color-scheme:dark){.a{fill:#eee}}</style><path d="M75.32,6.54c-.74-2.18-2-2.8-2.95-2.93-2.64-.37-5.64,2.73-7,4.63a63.11,63.11,0,0,0-5.9,10.45,104.63,104.63,0,0,0-7,21.62,27.09,27.09,0,0,1-2.11-3.22c-.47-.78-.94-1.59-1.48-2.38a3.78,3.78,0,0,1-.47-1.41,4.63,4.63,0,0,0-1-2.43,2.23,2.23,0,0,0-2.38-.8,1.27,1.27,0,0,0-.18.06.88.88,0,0,0-.05-.15,6.92,6.92,0,0,0-.85-1.82,5.64,5.64,0,0,0-3.3-2.2c-2-.49-4.3.2-6.67,2-3.56,2.68-6.55,6.78-8.87,12.2-1.71,4-3.53,9.25-2.38,14.51.42,1.94,1.43,4.47,3.82,5.51,2.78,1.2,5.6-.5,7-1.62a30.27,30.27,0,0,0,5.52-6c.78-1.07,1.48-2.21,2.07-3.22.44,3.29,1.72,5.34,3.87,6.22a4.65,4.65,0,0,0,5.71-1.14,124,124,0,0,0-.18,15.54c.3,5.4.68,12.13,2.88,18,1,2.74,2.58,5.95,5.52,6.44a4.44,4.44,0,0,0,.71.06,3.48,3.48,0,0,0,2.09-.68c1.75-1.26,2.35-4,2.64-5.94,1-6.23-.44-13-2.09-19.41a92.84,92.84,0,0,0-3.48-10.85c-.62-1.56-1.31-3.21-2.27-5.36-.1-.24-.22-.48-.35-.73a7.1,7.1,0,0,1-.5-1.08l.63.74.34.4.63.7a23.08,23.08,0,0,0,1.89,2S64.3,58,65.83,57.58a1.14,1.14,0,0,0,.79-.73c.21-.63-.15-1.18-1-2.3l-.08-.11a13.06,13.06,0,0,0-1-1.16l-.61-.66c-1.66-1.95-3.45-3.8-5.12-5.52-.11-.11-.26-.25-.44-.4s-.4-.34-.53-.47l.08-.08q.15-.16.3-.36c.75-1,1.42-1.83,2-2.75,1.3-1.9,2.59-4,4.18-6.84a146.85,146.85,0,0,0,7-14,79.53,79.53,0,0,0,2.88-7.67l.18-.58C75.16,11.81,76.11,8.83,75.32,6.54ZM42,38.55A58.25,58.25,0,0,1,34.93,51c-3.26,4.19-5.54,5.5-6.56,5.34-.49-.08-.91-.57-1.23-1.45-1.59-4.41.32-9.64,1.9-13.2,2.34-5.26,5-8.76,8-10.69a4.34,4.34,0,0,1,2.17-.79,1.73,1.73,0,0,1,.47.06,2,2,0,0,1,1.16,1.25,11.78,11.78,0,0,1,.81,3.28c.09.71.14,1.43.19,2.14,0,.19,0,.39.07.62A3.75,3.75,0,0,1,42,38.55Zm5.8,12.9c-1.29.36-2-1-2.28-1.83A15.85,15.85,0,0,1,45.33,43a15,15,0,0,1,.83-3.58c.08-.2.17-.4.26-.61s.15-.34.22-.52c0,.14.09.28.14.42a9.23,9.23,0,0,0,1.77,3.57,14.07,14.07,0,0,1,1.57,2.63l.21.44c.09.17.22.38.36.61a4.76,4.76,0,0,1,.59,1.2l-.08.12a21.1,21.1,0,0,1-2,2.9l-.28.38C48.52,51.12,48.4,51.29,47.79,51.45ZM70.87,8.75v.19a31.12,31.12,0,0,1-2.45,8.79l-.1.25a92.25,92.25,0,0,1-3.84,8.62c-1.5,2.94-3.12,6.06-4.88,9-.77,1.31-1.52,2.53-2.28,3.72A83.56,83.56,0,0,1,62.5,23a72.09,72.09,0,0,1,5-9.84l.2-.3a20.7,20.7,0,0,1,2.82-3.8l.15-.16ZM60,85.32l0,.4a14.47,14.47,0,0,1-.65,3l0,.09A16.15,16.15,0,0,1,57,83.17a68.92,68.92,0,0,1-1.73-13.79c-.18-4.12-.17-8.36,0-12.64a89.71,89.71,0,0,1,3.35,11.87L58.93,70A42.5,42.5,0,0,1,60,85.32ZM71.86,9ZM42,45.88Z" class="a"/></svg>