<svg width="91" height="47" viewBox="0 0 91 47" fill="none" xmlns="http://www.w3.org/2000/svg">
<g clip-path="url(#clip0_1415_2)">
<path d="M81.78 46.541C79.9627 46.541 78.6153 45.836 77.738 44.426C76.8607 43.0473 76.422 41.3867 76.422 39.444C76.422 35.214 77.268 30.514 78.96 25.344C80.652 20.1427 83.1117 14.8943 86.339 9.599C85.587 9.81833 84.6157 10.3823 83.425 11.291C82.2343 12.1997 80.9183 13.312 79.477 14.628C78.0357 15.944 76.5787 17.354 75.106 18.858C73.6647 20.3307 72.286 21.772 70.97 23.182C69.6853 24.592 68.573 25.861 67.633 26.989C66.7243 28.0857 66.0977 28.916 65.753 29.48C65.5963 29.7307 65.3457 29.856 65.001 29.856C64.5937 29.856 64.1707 29.6523 63.732 29.245C63.3247 28.8377 63.121 28.3833 63.121 27.882C63.121 27.694 63.356 27.224 63.826 26.472C64.296 25.6887 64.86 24.733 65.518 23.605C66.2073 22.4457 66.8497 21.2393 67.445 19.986C67.633 19.5787 67.8993 18.999 68.244 18.247C68.5887 17.495 68.9333 16.6803 69.278 15.803C69.654 14.8943 69.9673 14.017 70.218 13.171C70.4687 12.2937 70.594 11.5417 70.594 10.915C70.594 10.4137 70.5 10.022 70.312 9.74C70.124 9.42666 69.8107 9.27 69.372 9.27C68.7767 9.27 67.9463 9.56767 66.881 10.163C65.4083 10.9777 63.8573 12.1527 62.228 13.688C60.5987 15.192 58.9693 16.931 57.34 18.905C55.742 20.8477 54.2223 22.9157 52.781 25.109C51.3397 27.271 50.0707 29.4487 48.974 31.642C47.8773 33.804 47.0313 35.8563 46.436 37.799C46.2793 38.0183 46.0443 38.2377 45.731 38.457C45.4177 38.6763 45.1043 38.786 44.791 38.786C44.5717 38.786 44.368 38.692 44.18 38.504C43.992 38.316 43.898 37.987 43.898 37.517C43.898 37.2663 43.9763 36.953 44.133 36.577C44.2897 36.201 44.4463 35.7623 44.603 35.261C44.7283 34.885 45.12 34.0547 45.778 32.77C46.436 31.4853 47.2663 29.903 48.269 28.023C49.2717 26.1117 50.3527 24.0437 51.512 21.819C52.7027 19.563 53.862 17.2913 54.99 15.004C55.7733 13.4373 56.4313 11.8393 56.964 10.21C57.4967 8.54933 57.763 7.04533 57.763 5.698C57.763 4.31933 57.34 3.207 56.494 2.361C55.6793 1.48366 54.2223 1.045 52.123 1.045C49.209 1.045 46.154 1.35833 42.958 1.985C39.7933 2.58033 36.613 3.42633 33.417 4.523C30.2523 5.58833 27.166 6.84167 24.158 8.283C21.1813 9.72433 18.4083 11.2753 15.839 12.936C13.2697 14.5967 11.0137 16.32 9.071 18.106C7.12833 19.8607 5.60867 21.6153 4.512 23.37C3.44667 25.0933 2.914 26.754 2.914 28.352C2.914 29.762 3.27433 30.7177 3.995 31.219C4.71567 31.689 5.56167 31.924 6.533 31.924C7.22233 31.924 7.92733 31.8457 8.648 31.689C9.4 31.5323 10.0737 31.3913 10.669 31.266C10.7317 31.2347 10.8413 31.219 10.998 31.219C11.2487 31.219 11.4523 31.266 11.609 31.36C11.797 31.454 11.891 31.5637 11.891 31.689C11.891 31.783 11.7813 31.877 11.562 31.971C10.8413 32.1903 10.058 32.3783 9.212 32.535C8.39733 32.6917 7.58267 32.77 6.768 32.77C5.67133 32.77 4.63733 32.6133 3.666 32.3C2.69467 31.9867 1.91133 31.4697 1.316 30.749C0.752 30.0283 0.47 29.057 0.47 27.835C0.47 26.237 1.04967 24.5607 2.209 22.806C3.36833 21.02 4.96633 19.234 7.003 17.448C9.071 15.662 11.468 13.923 14.194 12.231C16.92 10.539 19.8497 8.97233 22.983 7.531C26.1477 6.05833 29.4063 4.77367 32.759 3.677C36.143 2.58033 39.4957 1.73433 42.817 1.139C46.1383 0.512332 49.3187 0.198998 52.358 0.198998C55.2407 0.198998 57.2617 0.700331 58.421 1.703C59.6117 2.67433 60.207 3.99033 60.207 5.651C60.207 6.967 59.9093 8.43967 59.314 10.069C58.75 11.667 58.0137 13.3433 57.105 15.098C56.3217 16.6333 55.5853 18.012 54.896 19.234C54.238 20.4247 53.627 21.5213 53.063 22.524C54.4417 20.738 55.8987 18.9833 57.434 17.26C58.9693 15.5053 60.5203 13.923 62.087 12.513C63.685 11.0717 65.236 9.928 66.74 9.082C68.2753 8.236 69.6853 7.813 70.97 7.813C71.8787 7.813 72.5053 8.048 72.85 8.518C73.1947 8.988 73.367 9.599 73.367 10.351C73.367 11.2597 73.1633 12.3093 72.756 13.5C72.38 14.6593 71.91 15.8187 71.346 16.978C70.782 18.106 70.265 19.093 69.795 19.939C69.1997 21.0043 68.6357 22.0227 68.103 22.994C67.6017 23.9653 67.069 24.921 66.505 25.861C67.2883 25.1717 68.3067 24.1847 69.56 22.9C70.8133 21.6153 72.2233 20.1897 73.79 18.623C75.3567 17.025 76.986 15.427 78.678 13.829C80.37 12.1997 82.0463 10.7113 83.707 9.364C85.399 7.98533 86.9657 6.90433 88.407 6.121C88.595 5.99567 88.83 6.01133 89.112 6.168C89.394 6.32467 89.6447 6.544 89.864 6.826C90.0833 7.108 90.193 7.37433 90.193 7.625C90.193 7.96967 90.099 8.39267 89.911 8.894C89.7543 9.364 89.4567 9.834 89.018 10.304C87.4827 12.09 86.0727 14.1737 84.788 16.555C83.5347 18.9363 82.4537 21.443 81.545 24.075C80.6677 26.707 79.9783 29.2763 79.477 31.783C79.007 34.2897 78.772 36.5457 78.772 38.551C78.772 40.6503 79.054 42.3267 79.618 43.58C80.182 44.8647 81.075 45.4757 82.297 45.413C83.0177 45.3503 83.8167 45.131 84.694 44.755C85.5713 44.4103 86.433 43.9717 87.279 43.439C88.125 42.9377 88.8613 42.452 89.488 41.982C89.5193 41.9507 89.5507 41.935 89.582 41.935C89.6447 41.935 89.676 42.0133 89.676 42.17C89.7073 42.3267 89.6917 42.452 89.629 42.546C89.5037 42.7027 89.206 42.9847 88.736 43.392C88.266 43.8307 87.6707 44.285 86.95 44.755C86.2293 45.2563 85.4303 45.6793 84.553 46.024C83.6757 46.3687 82.7513 46.541 81.78 46.541Z" fill="black"/>
</g>
<defs>
<clipPath id="clip0_1415_2">
<rect width="91" height="47" fill="white"/>
</clipPath>
</defs>
</svg>
