<?xml version="1.0" encoding="utf-8"?>
<!-- Generator: Adobe Illustrator 24.2.3, SVG Export Plug-In . SVG Version: 6.00 Build 0)  -->
<svg version="1.1" id="Layer_1" xmlns="http://www.w3.org/2000/svg" xmlns:xlink="http://www.w3.org/1999/xlink" x="0px" y="0px"
	 viewBox="0 0 121.9 121.9" style="enable-background:new 0 0 121.9 121.9;" xml:space="preserve">
<g>
	<path fill="#eee" d="M94.2,5.6C88.3-5,78.3,17.1,76.2,21.7c-4.4,10-7.3,20.1-9.6,30.7c-2.6-2.8-4.4-6.1-6.4-9.3c-1.1-2-1.6-7.8-4.9-4.8
		c-1.4-2.4-2.1-5.7-5.4-6.3c-12.1-1.1-23.9,21.8-22.2,32.3c2.7,15.1,21.1,0.2,25.4-6.7c-0.4,3.8-0.4,9.1,3.4,10.9
		c4.4,2,5.9-1.6,8.5-4.2c-1.5,15.7-3.4,32,1.8,47.4c2.4,8.8,10.9,11,11.8,0.2c1.2-13.4-2.1-26.5-6.1-39.1c-1.1-3.6-2.9-6.7-4-10.3
		c-0.6-5.2,2.2-0.6,3.5,0.8c2.2,2.4,7.1,8.1,10.8,7.8c0.5-0.3-0.9-1.6-1.2-1.9c-3.2-4-7-7.7-10.4-11.6c6.9-10,13.6-20.9,18.2-32.4
		C91.4,19.3,95.6,11.8,94.2,5.6z M53.8,48.1c-2.2,6.1-4.8,10.8-9.9,15c-14.3,12.5-16.4-2.3-9.7-13.7C40.2,36.8,52.9,25.6,53.8,48.1z
		 M55.8,40.2c0.4,0.6,0.8,1.1,1.1,1.7C56.1,42,55.3,41,55.8,40.2z M65.3,59.5c-1.6,2.3-2.5,5.4-5.2,6.3c-2.2,0.6-3.7-1.1-4.1-3.1
		c-1.2-6.6,0.9-13.1,1.8-19.5c2.2,4.2,4,8.4,6.5,12.6C64.8,56.9,66,58.3,65.3,59.5z M65.8,56.9c-0.3-0.2-0.3-0.6-0.4-0.9
		C65.8,56.2,66.2,56.5,65.8,56.9z M69.4,68.5c4.3,13.1,7.2,26.8,6,40.5c-1.2,12-5,3.3-6.5-2.8c-3.1-13.4-1.7-27.2-0.7-40.8
		C68.6,66.4,69.1,67.8,69.4,68.5z M91.1,8.3c-2.1,14.2-12.5,34.2-21.3,45.4c1.8-9.4,4.4-18.5,8-27.4C78.1,24.5,91.3-1.9,91.1,8.3z"
		/>
</g>
</svg>
