<svg width="825" height="830" viewBox="0 0 825 830" fill="none" xmlns="http://www.w3.org/2000/svg">
  <title>Michelangelo De Francesco</title>
  <style>
    @media (prefers-reduced-motion) {
    path {
    animation: none !important;
    stroke-dasharray: unset !important;
    }
    }

    @keyframes grow {
    0% {
    stroke-dashoffset: 1px;
    stroke-dasharray: 0 350px;
    opacity: 0;
    }

    10% {
    opacity: 1;
    transform: translate(0, 1%);
    }

    20% {
    transform: translate(0, 0);
    }

    40% {
    stroke-dasharray: 350px 0;
    }

    85% {
    stroke-dasharray: 350px 0;
    }

    95%,
    to {
    stroke-dasharray: 0 350px;
    }
    }

    path {
    stroke-dashoffset: 1px;
    stroke-dasharray: 350px 0;
    animation: grow 10s ease forwards infinite;
    transform-origin: center;
    stroke: #303030;
    animation-delay: 0s;
    }

    @media (prefers-color-scheme:dark) {
    path {
    stroke: #fdfdfd;
    }
    }
  </style>
  <path
    d="M58.5 691C73 592.833 116.9 380.8 176.5 318C236.1 255.2 167 276.5 125 295M176.5 322.999C163.5 368.499 143.3 463.499 166.5 479.499C195.5 499.499 329 247.499 425 259.999C521 272.499 531 369 404.5 540C303.3 676.8 98.6667 711 9 711M375 273.037C336.167 310.537 265.3 426.8 298.5 572M459.262 456C395.558 551.5 434.4 719.6 508 506C525.482 455.263 552.082 403.299 582.468 353M582.468 353C711.987 138.598 910.296 -45.5631 764.5 24.4999C584.5 111 491 617 552 790.5C600.8 929.3 592.645 556.666 582.468 353ZM777 372.5C696 353.5 535 323.5 521 399"
    stroke="black" stroke-width="18" stroke-linecap="round" stroke-linejoin="round" />
</svg>